<?xml version="1.0" encoding="utf-8"?>
<!-- Generator: Adobe Illustrator 22.0.0, SVG Export Plug-In . SVG Version: 6.00 Build 0)  -->
<svg version="1.1" xmlns="http://www.w3.org/2000/svg" xmlns:xlink="http://www.w3.org/1999/xlink" x="0px" y="0px"
	 viewBox="0 0 256 256" style="enable-background:new 0 0 256 256;" xml:space="preserve">
<style type="text/css">
	.st0{fill:#FFCB4F;}
	.st1{opacity:0.76;fill:url(#SVGID_1_);enable-background:new    ;}
	.st2{fill:#4C2B9E;}
	.st3{fill:#9422FE;}
	.st4{fill:#4441EF;}
	.st5{fill:#FBDE98;}
	.st6{display:none;}
	.st7{display:inline;fill:#2366D1;}
	.st8{display:inline;fill:#609DFF;}
	.st9{display:inline;fill:#A4C7FF;}
</style>
<g id="图层_1">
	<path class="st0" d="M107.4,18.1c4.1,10.8,5.6,22.7,3.8,34.9c-5.7,37.6-40.8,63.6-78.5,57.9c-8.5-1.3-16.4-4-23.4-8
		c9.7,16.3,26.5,28.3,46.7,31.4c36,5.4,69.5-19.3,75-55.2C134.5,55.2,124.8,32.4,107.4,18.1z"/>
	<g>
		
			<linearGradient id="SVGID_1_" gradientUnits="userSpaceOnUse" x1="89.7757" y1="154.2829" x2="147.1515" y2="70.9141" gradientTransform="matrix(1 0 0 -1 0 258)">
			<stop  offset="0" style="stop-color:#55FF7C"/>
			<stop  offset="0.4541" style="stop-color:#2AD3FF"/>
		</linearGradient>
		<path class="st1" d="M191,152.7c-3.1-34.4-32-61.3-67.2-61.3c-37.2,0-67.5,30.2-67.5,67.5c0,3.8,0.3,7.5,1,11.2L191,152.7z"/>
		<path class="st2" d="M251.8,169.1c1.8,14.6-52.2,33.6-120.7,42.3s-125.6,4-127.4-10.6s52.2-33.6,120.7-42.3
			c51.2-6.5,93.2,0.3,113.4,7.2C244.5,168.2,251.3,165.4,251.8,169.1z"/>
		<path class="st3" d="M56.5,160.1c0,0-52.6,27.8-52.6,37.5c0,9.8,86.2,11.9,125.9,5.8s124.5-22.7,122.2-33.6
			c-2.4-10.9-62.7-23.3-62.7-23.3s-25.6,7.3-64.5,12.1C88.1,163.4,56.5,160.1,56.5,160.1z"/>
		<path class="st4" d="M190,144.8c-6.4,4.9-33.5,9.6-67,14.1c-34.1,4.5-58.8,2.4-67.3,1.3c-1,0.8-3,1.9-2.9,2.6
			c0.6,5.1,32.1,5.6,70.4,1.2s68.8-11,68.2-16.2C191.3,147.1,190.8,145.3,190,144.8z"/>
		
			<ellipse transform="matrix(0.1999 -0.9798 0.9798 0.1999 -170.1161 183.8026)" class="st5" cx="27.5" cy="196.1" rx="5.8" ry="8"/>
		
			<ellipse transform="matrix(0.9999 -1.633051e-02 1.633051e-02 0.9999 -3.2063 1.2819)" class="st5" cx="76.9" cy="197" rx="8" ry="5.1"/>
		
			<ellipse transform="matrix(0.9963 -8.636718e-02 8.636718e-02 0.9963 -16.2979 12.0301)" class="st5" cx="130.9" cy="194.4" rx="8" ry="4.8"/>
		
			<ellipse transform="matrix(0.9963 -8.636718e-02 8.636718e-02 0.9963 -15.2139 16.872)" class="st5" cx="187.4" cy="184.3" rx="8" ry="5"/>
		
			<ellipse transform="matrix(0.9531 -0.3028 0.3028 0.9531 -40.7303 78.4447)" class="st5" cx="232.6" cy="170.6" rx="7.1" ry="4.6"/>
	</g>
</g>
<g id="图层_2" class="st6">
	<path class="st7" d="M128.9,129l110.9,64l-110.9,64L18,193L128.9,129z"/>
	<path class="st8" d="M128.9,65l110.9,64l-110.9,64L18,129L128.9,65z"/>
	<path class="st9" d="M128.9,1l110.9,64l-110.9,64L18,65L128.9,1z"/>
</g>
</svg>
