<?xml version="1.0" encoding="utf-8"?>
<!-- Generator: Adobe Illustrator 22.0.0, SVG Export Plug-In . SVG Version: 6.00 Build 0)  -->
<svg version="1.1" xmlns="http://www.w3.org/2000/svg" xmlns:xlink="http://www.w3.org/1999/xlink" x="0px" y="0px"
	 viewBox="0 0 949 256" style="enable-background:new 0 0 949 256;" xml:space="preserve">
<style type="text/css">
	.st0{display:none;}
	.st1{display:inline;fill:#2366D1;}
	.st2{display:inline;fill:#609DFF;}
	.st3{display:inline;fill:#A4C7FF;}
	.st4{display:inline;}
	.st5{fill:#333333;}
	.st6{fill:#FFCB4F;enable-background:new    ;}
	.st7{fill:#6A3AEF;}
	.st8{opacity:0.76;fill:url(#SVGID_1_);enable-background:new    ;}
	.st9{fill:#4C2B9E;enable-background:new    ;}
	.st10{fill:#9422FE;enable-background:new    ;}
	.st11{fill:#4441EF;}
	.st12{fill:#FBDE98;enable-background:new    ;}
</style>
<g id="图层_1" class="st0">
	<path class="st1" d="M110.9,128l110.9,64l-110.9,64L0,192L110.9,128z"/>
	<path class="st2" d="M110.9,64l110.9,64l-110.9,64L0,128L110.9,64z"/>
	<path class="st3" d="M110.9,0l110.9,64l-110.9,64L0,64L110.9,0z"/>
	<g transform="translate(300, 55.695), scale(0.7)" class="st4">
		<path vector-effect="non-scaling-stroke" class="st5" d="M613.9,10.2v127c0,0.9,0,1.9,0.1,2.8c0.4,8.5,2.6,16.3,6.6,23.3
			c0.4,0.6,0.7,1.2,1.1,1.8c0.9,1.4,1.8,2.8,2.9,4.1c4.5,5.8,10.3,10.6,17.2,14.3c0.6,0.3,1.1,0.6,1.7,0.9c1.6,0.8,3.2,1.5,4.9,2.2
			c7.4,2.9,15.6,4.5,24.5,4.7c0.8,0,1.7,0,2.5,0c0.9,0,1.9,0,2.8,0c9.8-0.3,18.6-2.2,26.6-5.7c0.8-0.4,1.7-0.8,2.5-1.2
			c9.3-4.6,16.6-11,21.9-19.2c0.8-1.2,1.5-2.5,2.2-3.8c3.5-6.7,5.4-14.2,5.7-22.3c0-0.6,0-1.2,0-1.8v-127c0-0.3,0-0.6,0-0.9
			c0.2-2,0.9-3.5,2.1-4.7c0.8-0.7,1.7-1.3,2.7-1.6c0.8-0.3,1.8-0.4,2.8-0.4c1.5,0,2.8,0.3,3.9,0.8c0.6,0.3,1.2,0.7,1.7,1.2
			c1.2,1.2,1.9,2.9,2,4.9c0,0.2,0,0.5,0,0.7v127c0,13.1-3.1,24.7-9.2,35c-0.2,0.3-0.4,0.7-0.6,1c-6.6,10.5-15.7,18.7-27.4,24.6
			c-10.8,5.4-23,8.4-36.5,8.8c-1.1,0-2.2,0-3.3,0c-14.8,0-28.1-2.9-39.8-8.8c-0.9-0.5-1.8-0.9-2.7-1.4c-9.2-5.1-16.7-11.8-22.5-20
			c-0.7-1-1.4-2.1-2.1-3.2c-6.5-10.5-9.7-22.5-9.7-36v-127c0-0.3,0-0.6,0-0.9c0.2-2,0.9-3.5,2.1-4.7c0.8-0.7,1.7-1.3,2.7-1.6
			c0.8-0.3,1.8-0.4,2.8-0.4c1.5,0,2.8,0.3,3.9,0.8c0.6,0.3,1.2,0.7,1.7,1.2c1.2,1.2,1.9,2.9,2,4.9C613.9,9.7,613.9,10,613.9,10.2z
			 M895.5,9c-0.2-0.1-0.4-0.2-0.6-0.3C884.6,2.9,873.4,0,861.2,0c-0.8,0-1.6,0-2.4,0c-11,0.3-20.7,2.3-29.2,6.2
			c-0.5,0.2-1,0.5-1.5,0.7c-8.4,4.1-15,9.8-19.8,17c-5,7.6-7.6,16.3-7.6,26.2c0,13,4.8,24.2,14.4,33.5c0.6,0.6,1.2,1.2,1.8,1.7
			c0.9,0.8,1.7,1.5,2.7,2.2c10,7.9,23.2,13.3,39.4,15.9c0.9,0.1,1.8,0.3,2.6,0.4c14.9,2,26.5,6.4,34.7,13c0.7,0.6,1.4,1.1,2,1.7
			c0.3,0.3,0.6,0.5,0.8,0.8c7.7,7.5,11.6,16.8,11.6,28c0,13.5-4.2,23.9-12.7,31.2c-1.4,1.2-2.9,2.3-4.5,3.3
			c-7.5,4.8-16.9,7.4-28.2,7.6c-0.7,0-1.4,0-2,0c-0.7,0-1.5,0-2.2,0c-10.5-0.2-19.7-2.1-27.6-5.6c-1-0.5-2.1-0.9-3.1-1.5
			c-0.5-0.3-1-0.5-1.5-0.8c-7.2-4-12.9-9.2-17.1-15.7c-0.7-1.1-1.3-2.2-2-3.3c-0.1-0.1-0.1-0.2-0.2-0.4c-1.4-2.7-3.5-4.2-6.2-4.5
			c-0.3,0-0.7-0.1-1-0.1c-0.1,0-0.2,0-0.3,0c-2.2,0.1-4,0.7-5.4,2c-0.2,0.2-0.5,0.5-0.7,0.7c-0.8,1-1.3,2.1-1.4,3.4
			c0,0.3-0.1,0.7-0.1,1c0,0.3,0,0.7,0.1,1c0.1,0.4,0.2,0.8,0.3,1.1c0.1,0.3,0.2,0.6,0.4,0.9c0.2,0.5,0.5,0.9,0.7,1.4
			c5.3,9.9,13,17.9,23,24.1c0.9,0.5,1.8,1.1,2.7,1.6c11.8,6.6,25.7,9.9,41.7,9.9c10.7,0,20.3-1.7,28.8-5.1c1.4-0.6,2.7-1.2,4.1-1.8
			c9.5-4.6,16.8-11.3,22-20c0.8-1.3,1.5-2.6,2.1-4c3.8-7.8,5.7-16.7,5.7-26.8c0-0.7,0-1.4,0-2.1c-0.4-13.5-4.6-24.7-12.6-33.6
			c-0.7-0.8-1.5-1.6-2.2-2.3c-9.9-9.6-25.6-16.3-47.1-19.8c-0.6-0.1-1.2-0.2-1.8-0.3c-15.5-2.8-27-7.3-34.5-13.5
			c-0.3-0.3-0.6-0.5-0.9-0.8c-7.2-6.3-10.8-14.1-10.8-23.3c0,0,0-0.1,0-0.1c0-11.4,4-20.2,11.9-26.6c0.3-0.2,0.6-0.5,0.9-0.7
			c7.5-5.7,17.6-8.6,30.3-8.9c0.7,0,1.3,0,2,0c0.3,0,0.6,0,0.9,0c17.8,0.2,31.6,7,41.5,20.2c0.5,0.7,1,1.3,1.4,2
			c1.5,2.3,3.5,3.5,6.1,3.8c0.3,0,0.7,0.1,1.1,0.1c0.2,0,0.4,0,0.6,0c1.1,0,1.9-0.2,2.5-0.5c0,0,0.1,0,0.1-0.1
			c0.7-0.3,1.3-0.8,1.8-1.2c0.5-0.4,0.9-0.9,1.3-1.4c0.5-0.8,0.9-1.6,1-2.5c0.1-0.4,0.1-0.8,0.1-1.2c0-1.5-0.3-2.9-1-4.1
			C913.6,22.1,905.9,14.9,895.5,9z M160.3,0.1C159,0,157.7,0,156.4,0c-16.6,0-31.9,3.8-46,11.5c-1.5,0.8-2.9,1.6-4.3,2.5
			c-0.5,0.3-1,0.6-1.6,1c-13.2,8.4-24,19.2-32.4,32.6c-0.8,1.3-1.6,2.6-2.4,4c-9,15.7-13.4,32.7-13.4,50.9
			c0,16.6,3.7,32.2,11.2,46.8c0.7,1.4,1.5,2.9,2.3,4.3c9,15.8,21.2,28.3,36.6,37.6c0.5,0.3,1.1,0.6,1.6,0.9c14.9,8.7,31,13,48.3,13
			c27.3,0,48.3-7.3,63-22c1-1.2,1.6-2.6,1.8-4.4c0-0.3,0-0.6,0-1c0-1.8-0.6-3.4-1.7-4.8c-0.2-0.3-0.5-0.6-0.8-0.8
			c0,0-0.1-0.1-0.1-0.1c-1.6-1.5-3.4-2.2-5.4-2.2c-0.6,0-1.1,0.1-1.7,0.2c-0.4,0.1-0.8,0.3-1.3,0.5c-0.3,0.2-0.6,0.3-0.9,0.5
			c-15.2,12.5-32.9,18.7-53,18.7c-13.8,0-26.7-3.2-38.7-9.7c-1.2-0.7-2.5-1.4-3.7-2.1c-13.1-7.9-23.4-18.5-31-31.9
			c-6.9-12.2-10.7-25.3-11.3-39.4c-0.1-1.4-0.1-2.8-0.1-4.2c0-15.2,3.8-29.5,11.5-42.9c0-0.1,0.1-0.2,0.2-0.3
			c7.7-13.3,18-23.9,31-31.9c0.9-0.6,1.9-1.1,2.9-1.7c11-6.2,22.7-9.6,35.1-10.2c1.4-0.1,2.8-0.1,4.2-0.1c0.1,0,0.3,0,0.4,0
			c15.6,0.1,28.9,3.2,40,9.5c4,2.2,7.7,4.9,11,7.9c0.2,0.1,0.3,0.3,0.5,0.4c2.2,1.8,4.2,2.7,5.9,2.7c0.2,0,0.4,0,0.6,0
			c1.6-0.1,3-0.6,4.1-1.5c0.3-0.3,0.6-0.6,0.9-0.9c0.1-0.1,0.2-0.2,0.2-0.3c1.2-1.6,1.8-3.3,1.8-5.2c0-0.2,0-0.4,0-0.6
			c-0.1-1.9-0.9-3.4-2.3-4.5c0,0-0.1-0.1-0.1-0.1C202.3,8.4,182.6,0.9,160.3,0.1z M551.2,198.4l-47.1-75.3h-4.6h-41.2v71.7
			c0,2.2-0.7,4.1-2,5.5c-1.3,1.4-3.1,2.1-5.3,2.2c-0.1,0-0.2,0-0.3,0c-2.1,0-3.8-0.6-5.2-1.9c-0.1-0.1-0.2-0.2-0.3-0.3
			c-0.3-0.3-0.6-0.7-0.9-1c-0.9-1.2-1.3-2.7-1.3-4.4c0,0,0,0,0,0V10.2c0-0.3,0-0.6,0-0.9c0.2-2,0.9-3.5,2.1-4.7
			c0.8-0.7,1.7-1.3,2.7-1.6c0.8-0.3,1.8-0.4,2.8-0.4h48.9c12.3,0,23.3,2.6,33,7.7c9,4.7,16.1,11.2,21.5,19.4
			c0.4,0.7,0.9,1.4,1.3,2.1c2.1,3.6,3.9,7.4,5.2,11.4c2,6.2,3,12.9,3,20.1c0,12.6-3.2,23.7-9.5,33.2c-0.7,1-1.4,2-2.1,3
			c-0.8,1.1-1.7,2.1-2.6,3.2c-7.1,8-16,13.7-27,17.2c-0.6,0.2-1.2,0.4-1.8,0.5l44,70.4c1.4,2.4,2,4.4,2,5.9c0,0.3,0,0.6,0,0.8
			c-0.2,1.2-0.6,2.2-1.4,3c-0.2,0.2-0.4,0.4-0.7,0.6c-0.3,0.2-0.5,0.3-0.8,0.5c-1.4,0.7-3.2,1.1-5.5,1.1c-1.6,0-2.8-0.3-3.8-0.8
			c-0.1-0.1-0.2-0.1-0.3-0.2c-0.9-0.6-1.7-1.4-2.5-2.5C551.4,198.8,551.3,198.6,551.2,198.4z M399.1,197.6l-18.9-45.3H276L257,197.6
			c-1.1,3.1-3.3,4.7-6.6,4.9c-0.2,0-0.4,0-0.5,0c-0.3,0-0.6,0-0.9,0c-1.9-0.2-3.4-0.9-4.5-2.1c-0.1-0.1-0.1-0.1-0.2-0.2
			c-0.3-0.3-0.5-0.6-0.7-1c-0.9-1.3-1.3-2.8-1.3-4.4c0-0.4,0-0.9,0.1-1.3c0.1-0.7,0.3-1.4,0.7-2L320.5,7.9c0.1-0.3,0.2-0.5,0.3-0.8
			c1.3-2.8,3.4-4.3,6.3-4.5c0.3,0,0.5,0,0.8,0c0.3,0,0.7,0,1,0.1c2.9,0.3,5,2.1,6.4,5.3l77.8,183.6c0.5,1,0.8,2.1,0.8,3.3
			c0,0.4,0,0.9-0.1,1.3c-0.3,1.5-1,2.9-2.2,4.1c-0.2,0.2-0.5,0.5-0.8,0.7c-1.2,0.9-2.5,1.5-4,1.6c-0.2,0-0.4,0-0.6,0
			c-0.3,0-0.6,0-0.9,0C402.4,202.2,400.3,200.6,399.1,197.6z M15.4,10.2v184.6c0,2.1-0.6,3.8-1.9,5.2c-0.1,0.1-0.2,0.2-0.3,0.3
			c-0.3,0.3-0.7,0.6-1,0.9c-1.2,0.9-2.7,1.3-4.4,1.3c0,0,0,0,0,0c-2.1,0-3.8-0.6-5.2-1.9c-0.1-0.1-0.2-0.2-0.3-0.3
			c-0.3-0.3-0.6-0.7-0.9-1C0.4,198,0,196.6,0,194.9c0,0,0,0,0,0V10.2C0,8.2,0.6,6.4,1.9,5C2,4.9,2.1,4.8,2.2,4.7
			c0.3-0.3,0.7-0.6,1-0.9C4.5,3,5.9,2.6,7.6,2.6c0,0,0,0,0,0c2.1,0,3.8,0.6,5.2,1.9c0.1,0.1,0.2,0.2,0.3,0.3c0.3,0.3,0.6,0.7,0.9,1
			C14.9,7,15.4,8.5,15.4,10.2C15.4,10.2,15.4,10.2,15.4,10.2z M281.9,138.5h92.4L327.9,27.9L281.9,138.5z M458.2,107.8h41.2
			c7.3,0,14-1.1,20.1-3.4c1.7-0.6,3.4-1.4,5-2.2c0.9-0.4,1.7-0.9,2.5-1.4c5.1-3,9.4-6.9,12.8-11.6c0.7-0.9,1.3-1.9,1.9-2.9
			c3.7-6.1,5.8-12.9,6.2-20.4c0-0.9,0.1-1.8,0.1-2.7c0-8.7-2.1-16.5-6.3-23.4s-9.9-12.3-17.3-16.1c-7.3-3.8-15.7-5.8-25.1-5.8h-41.2
			V107.8z"/>
	</g>
</g>
<g id="图层_2">
	<path class="st6" d="M112.6,3.3c4.3,11.2,5.8,23.6,3.9,36.3c-5.9,39.1-42.4,66.1-81.6,60.2c-8.8-1.3-17-4.2-24.3-8.3
		c10.1,16.9,27.5,29.4,48.5,32.6c37.4,5.6,72.2-20.1,77.9-57.4C140.8,41.8,130.7,18.1,112.6,3.3z"/>
	<g>
		<path class="st7" d="M324.8,67.6h12.9c1.7,0.7,3.5,1.3,5.4,1.8c1.9,1.5,3.7,3.1,5.4,4.6c0.3,1,0.9,2.1,1.8,3.3
			c-0.2,1.7-0.7,3.3-1.5,4.9c-2.7,2.7-5.7,5.5-8.8,8.2v1c1.2,1,2.6,2,4.1,2.8c1,1.2,2.1,2.5,3.1,3.9c0.5,1.4,1.1,2.9,1.8,4.6
			c0,2.4-0.3,4.7-0.8,7c-1.7,1.7-3.1,3.7-4.1,5.9c-2.2,1.7-4.6,3.3-7,4.6c-1.7,0-3.3,0.2-4.9,0.5c-4.6-1.7-8.8-3.9-12.4-6.7
			c-0.2-0.9,0-1.5,0.5-2.1c-0.3-0.7-0.7-1.2-1-1.5c0.7-0.2,1.5-0.1,2.3,0.3c3.1-2.1,6.4-3.7,10-4.9c1.7-1.7,3.5-3.2,5.4-4.4
			c0-0.7,0.1-1.2,0.3-1.5c-2.6-0.9-5.2-1.5-7.7-1.8v-0.8c-1.4-1.2-2.7-2.2-4.1-3.1c0-1.4-0.5-2.4-1.5-3.1c0.2-0.5,0.6-1.1,1.3-1.8
			c-0.5-0.7-0.7-1.3-0.5-1.8c2.2-1.7,4.5-3.5,6.7-5.4c1.2-1.7,2.6-3.3,4.1-4.6c0-0.5-0.1-0.9-0.3-1h-7.7c-2.7,0.5-5.5,0.9-8.2,1.3
			c-0.5,0.2-0.6,0.5-0.4,0.9c0.3,0.4,0.6,1,1.2,1.7c0.2,1.5,0.2,3.3,0,5.2c-0.7,3.4-1.4,6.9-2.1,10.3c-0.3,13.7-0.1,27.6,0.8,41.5
			c-1.4,1.4-2.5,2.7-3.3,4.1c-0.5-0.5-0.9-0.4-1,0.3c-1.4-1.7-3.1-2.9-5.2-3.6c-0.7-1.4-1.4-2.7-2.1-4.1c-0.2-7.7-0.4-15.4-0.6-22.9
			c-0.3-7.6,0-14.9,0.6-22.2c0.2-1.2,0.6-2.2,1.3-3.1c-0.3-0.7-0.5-1.3-0.5-1.8c0.5-2.2,1.4-4.3,2.6-6.2c-0.7-0.9-1.3-0.9-1.8-0.3
			c-1-0.9-1.7-1.8-2.1-2.8c0.7-0.7,1.4-1.3,2.1-1.8c0.2-0.7,0.3-1.3,0.3-1.8c0.9-0.2,1.6-0.6,2.3-1.3
			C315.8,69.4,320.3,68.6,324.8,67.6z M354.7,52.1c8.9,1.2,18.1,2.2,27.6,3.1l0.5-0.5c1.7,0,3.3,0.4,4.9,1.3
			c4.5-0.2,8.8,0.1,13.1,0.8c1.5,1.4,3,3,4.4,4.9v1.3c-0.9,1.4-2,2.7-3.3,3.9c-1-0.2-1.9,0.1-2.6,0.8c-2.6,0.2-5.2,0.2-7.7,0
			c-0.9-0.7-1.6-1-2.2-1c-0.6,0-0.9,0.3-0.9,0.8c0.9,0.7,1.9,1.5,3.1,2.3c2.1,3.8,3.9,7.8,5.7,12.1c0.9,3.6,1.5,7.3,2.1,11.1
			c0.2,6.7,0,13.2-0.5,19.6c-1.4,3.4-2.4,7-3.1,10.8c-1,1.9-2,3.8-2.8,5.7c-1.5,1.4-2.8,3-3.9,4.9c-2.6,2.2-5.1,4.3-7.5,6.2
			c-4,1.7-7.8,3.7-11.6,5.9c-4.3,1.4-8.7,2.4-13.1,3.1c-4.1-1.2-8.1-2.7-11.8-4.4c0-0.5-0.1-0.9-0.3-1.3c-1,0-1.9-0.2-2.6-0.5
			c0-1.2-0.4-2-1.3-2.3l0.8-0.8c0.9-0.2,1.7-0.1,2.6,0.3c1.2-0.7,2.1-1.3,2.8-1.8c-2.4,0-4.8,0-7.2,0c-0.5-0.5-0.4-0.9,0.3-1
			c3.1,0.3,6.4,0.3,9.8-0.3c-0.3,0.3-0.8,0.6-1.3,0.8c0.3,0.5,1.1,0.7,2.3,0.5c7.2-2.4,14.2-5.2,20.9-8.5c2.4-2.1,4.8-4,7.2-5.9
			c0-1,0-2.1,0-3.1c1.2-2.4,2.4-4.7,3.6-7c0.7-3.6,1.5-7.1,2.3-10.6c-0.2-0.7-0.3-1.3-0.5-1.8c-0.2-0.5-0.1-0.9,0.3-1.3
			c-0.3-0.9-0.9-1.4-1.5-1.5c-0.9,0.5-1.2,1.1-1,1.7c0.2,0.6,0.5,1.1,1,1.4c0,1-0.3,2-0.8,2.8c-0.3-0.7-0.9-1-1.7-1
			c-0.8,0-1,0.3-0.6,1c0.3,0.7,0.9,0.9,1.8,0.5c0,0.7-0.2,1.3-0.5,1.8c-3.6,4.8-7.2,9.6-10.8,14.4c-1.5,1-3.2,2-4.9,2.8h-4.4
			c-0.9-0.5-1.5-1-2.1-1.5c-1-0.2-2-0.3-2.8-0.3c-1.9-2.6-3.7-5.3-5.4-8.2c-0.2-3.6-0.3-7.1-0.5-10.6c0.2-2.1,0.4-3.9,0.8-5.4
			c1.5-3.6,2.8-7.2,3.9-10.8c0.7-1.2,1.4-2.3,2.1-3.3c1.5-2.2,3.4-3.9,5.7-4.9c0.5,0.3,1.3,0.6,2.3,0.8c1,1,2.1,2.2,3.3,3.6
			c4.8,1.5,9.4,3.5,13.9,5.9c0.5,1,1.2,2,2.1,2.8l0.5-0.5c-0.3-4.8-1-9.3-2.1-13.4c-0.7-0.9-1.4-1.5-2.1-2.1c0-0.9-0.1-1.6-0.3-2.3
			c-0.7-0.5-1.4-0.8-2.1-0.8c-0.2-1.4-0.7-2.3-1.5-2.8c-0.2-0.9,0-1.5,0.4-1.8c0.4-0.3,1-0.7,1.7-1c0-0.5-0.2-0.9-0.5-1
			c-6.5-0.5-12.8-1.4-18.8-2.6c-3.6,0-7-0.2-10.3-0.5c-3.1,0.2-6.2,0.5-9.3,1c-2.2-1-4.3-2.5-6.2-4.4c-0.9-1.2-1.4-2.4-1.5-3.6
			c0.7-0.7,1.4-1.2,2.1-1.5c-0.2-0.7-0.1-1.3,0.3-1.8c1,0,1.9,0,2.6,0c0.7,0,1.3-0.2,1.8-0.5c3.9-0.5,7.8-0.3,11.6,0.5
			C351.9,52.4,353.3,52.1,354.7,52.1z M364.7,94.6c-1.7,3.1-3.1,6.4-4.1,10c-0.2,2.6-0.1,5,0.3,7.2c2.1-0.9,4-2.1,5.9-3.6
			c0.9-1.4,1.8-2.5,2.8-3.3c1.5-2.6,2.9-5.2,4.1-8c-1.9-1.4-3.9-2.4-5.9-3.1C366.6,93.8,365.6,94.1,364.7,94.6z M377.1,110.6
			c0.3,0.2,0.7,0.2,1,0c-0.2-1-0.7-1.8-1.5-2.3C376.2,109,376.4,109.7,377.1,110.6z M378.6,101.3c0.3,0.9,1.1,1.3,2.3,1.3
			c0.3-0.3,0.5-0.8,0.5-1.3c-0.5-0.5-0.9-0.9-1-1.3C379.7,100.2,379.1,100.6,378.6,101.3z"/>
		<path class="st7" d="M500.2,53.4c0.3,1.5,1,3,2.1,4.4c0.5-0.2,1.1-0.5,1.8-1v-1c3.3-0.5,6.6-0.9,10-1c2.4,0.5,4.7,1.2,7,2.1
			c2.2,2.4,4.5,4.9,6.7,7.5c0.7,2.2,0.9,5,0.8,8.2c-1.4,2.7-2.6,5.6-3.6,8.5c-4.1,5-8.4,10-12.9,15.2c-4.1,2.4-8.2,4.6-12.4,6.4H494
			c-2.9-1.2-5.7-2.5-8.2-3.9c-1.9-1.9-3.3-3.9-4.4-5.9c-0.2-1.5-0.5-3-1-4.4c-4.1,0.3-8.1,1.1-11.9,2.3c-0.7,0.2-1.1,0.6-1.3,1.3
			c-0.5,2.9-0.4,5.6,0.3,8c0.5,0,1.1-0.1,1.8-0.3c1.9,0.7,3.9,1.5,6.2,2.3c2.2,2.2,4.5,4.6,7,7c-0.3,1.4-1,2.7-2.1,3.9
			c-2.4-0.2-4.7-0.4-7-0.8c-2.1-1.4-4-2.7-5.7-4.1c-0.7-0.2-1.1,0.1-1.3,0.8c0.5,10,0.9,19.8,1.3,29.4c-0.7,0.9-0.9,2-0.8,3.3
			c-1.4,1.4-2.7,2.9-3.9,4.6h-4.6c-0.7-0.5-1.1-1-1.3-1.5c-0.7-6-1.5-11.7-2.3-17c-0.3-4.3-0.4-8.6-0.3-12.9l-0.8-0.8
			c-0.7-0.2-1.1,0.1-1.3,0.8c-1.9,4-4,7.7-6.2,11.3c-2.2,0.9-4.4,1.3-6.4,1.3c-0.3-0.9-0.9-1.4-1.5-1.5c-0.2-2.4-0.1-4.6,0.3-6.7
			c1.2-3.3,2.6-6.4,4.1-9.3c2.2-3.9,4.6-7.7,7.2-11.3c0.5,0,0.9-0.3,1-0.9c0.2-0.6,0.1-0.9-0.3-0.9c-2.6,1-5.1,2.2-7.5,3.6
			c-2.7-0.3-5.4-0.6-8-0.8c-0.5-0.5-0.7-0.9-0.6-1.3c0.1-0.3,0.2-0.7,0.4-1c-0.9-0.5-1.3-1.2-1.3-2.1c0.7-0.3,1.5-0.5,2.6-0.5
			c1.7-1.2,3.5-2.3,5.4-3.3c4.1-1.5,8.3-2.9,12.6-4.1c0.2-0.9,0.5-1.5,1-2.1c0-3.9,0-7.6,0-10.8c-2.7,0.5-5.3,1.3-7.7,2.3
			c-1.5,0.2-3,0.3-4.4,0.3c-0.5-0.7-1-1-1.5-1s-0.8,0.3-0.8,0.8c-1.2-0.5-2.2-0.5-3.1,0c-1.2-1.2-2-2.4-2.3-3.6
			c1.7-1.4,3.7-2.7,5.9-3.9c10-2.4,20.1-4.5,30.4-6.2c0.9,0.3,1.8,0.8,2.8,1.3c0,0.9,0.3,1.6,1,2.3c-0.7,1-1.5,2.1-2.6,3.1
			c-3.8,1.4-7.6,2.6-11.6,3.6c2.1,1,3.9,2.4,5.7,4.1c-0.2,1.2-0.2,2.6,0,4.1c0.2,0.3,0.5,0.8,1,1.3c3.9-0.9,8-1.5,12.1-2.1
			c0.5-0.3,1.1-0.8,1.8-1.3c0.7-2.4,1.5-4.7,2.3-7c3.3-7.2,7-13.8,11.1-19.8C497.1,52.3,498.7,52.5,500.2,53.4z M515.9,100.5
			c1.9-0.2,3.9-0.1,5.9,0.3c0.9,0.2,1.8,0.6,2.8,1.3c0.3,0.9,0.8,1.7,1.3,2.6l-2.1,2.1c-4.1,0.2-7.8,0.8-11.1,1.8
			c-0.9,0.7-1.4,1.5-1.5,2.6v2.3c0.2,0.3,0.5,0.5,1,0.5c1.7-1.2,3.6-2.1,5.7-2.6c1.2,1,2.4,2.1,3.6,3.3c0,1.4-0.6,2.5-1.8,3.3
			c-3.1,1.5-6.2,3.1-9.3,4.6c-1.2,4.3-2,8.8-2.3,13.7c-0.7,0.7-1.1,1.5-1.3,2.6l0.5,0.5c10.8-1,22-1.7,33.5-2.1
			c0.5,1,0.4,2.1-0.3,3.2c-0.7,1.1-1.4,2.2-2.1,3.2c-1.9,0.5-3.6,1.1-5.2,1.8c-7.7,0.3-15.1,1.1-22.2,2.3
			c-9.3,0.3-18.5,0.2-27.6-0.5c-2.7-1.4-5.2-3-7.5-4.9c-0.2-0.7-0.1-1.3,0.3-1.8c0.3-0.5,0.9-0.9,1.5-1.3c3.4-0.3,7.1-0.7,11.1-1
			c2.7,0.7,5.7,1,8.8,1l0.5-0.5c-0.7-4.5-1.1-8.8-1.3-12.9c-4.8,0.2-9.6,0.2-14.4,0c-0.5-0.9-0.4-1.5,0.3-2.1
			c2.4-1.5,4.9-2.9,7.5-4.1c2.6-0.7,5.2-1.4,7.7-2.1c-0.2-1.2-0.1-2.3,0.3-3.3c-1-0.7-2-0.8-3-0.3c-0.9,0.5-1.8,0.9-2.4,1.3
			c-3.4-0.2-6.5-0.7-9.3-1.5c-0.7-0.5-1-1-1-1.5l1-1c-0.3-0.5-0.4-1-0.3-1.5c8.1-2.7,16.3-5.5,24.7-8.2
			C510.8,101.2,513.3,100.9,515.9,100.5z M500.5,62.9c-1.7,1.9-3,4-3.9,6.2c-0.3,1.4-0.6,2.8-0.8,4.4c-1.2,2.4-2.3,4.8-3.3,7.2
			c-0.2,2.1-0.6,4-1.3,5.9v7.5c0.9,1,2.1,1.5,3.6,1.5c1.7-0.9,3.5-1.6,5.4-2.3c2.4-2.4,4.9-4.5,7.5-6.4c2.2-2.9,4.6-5.8,7.2-8.5
			c1.2-2.6,2.6-5,4.1-7.2v-1.5c-1-1.4-2-2.7-2.8-3.9c-1.9-1.5-3.8-2.8-5.7-3.9C506.9,61.9,503.5,62.3,500.5,62.9z"/>
		<path class="st7" d="M592.4,81.5c0.5,0.3,1.1,0.9,1.8,1.8c2.2-1.2,4.8-1.9,7.7-2.1c1,0.2,2.1,0.3,3.3,0.5c0.9,0.9,1.9,1.5,3.1,1.8
			c3.3,6.7,6.8,13.6,10.6,20.6c-0.2,1-0.3,2.1-0.3,3.3c-1.4,1.5-2.3,3.3-2.8,5.4c-4.3,5.3-8.6,10.7-12.9,16.2
			c-2.4,2.1-4.7,4.1-7,6.2c-1.4,0.5-2.7,1.1-3.9,1.8c-2.4,0.2-4.6,0.4-6.7,0.8c-1.2-0.3-2.3-0.6-3.3-0.8l-1.3-1.3h-1.5
			c-1-1.2-1.9-2.4-2.6-3.6c-1.2-3.6-2.1-7.3-2.6-11.1c0.5-1.7,0.5-3.3,0-4.9c0.5-1.4,0.9-2.6,1-3.6c0.2-1-0.2-1.6-1-1.8
			c-0.2-1.2-0.3-2.1-0.3-2.8c0.9,0.2,1.7-0.2,2.6-1c2.2-8.6,5.1-17,8.5-25.2C587.5,81.6,590,81.5,592.4,81.5z M614.3,66
			c0.7,0.5,1.4,1.3,2.1,2.3c0.2-0.2,0.5-0.3,1-0.3c0.7,1.4,0.9,3,0.5,4.9c-0.7,0.3-1.1,0.9-1.3,1.5c-6.9,1.7-13.7,3.4-20.6,5.2
			c-4.3,0-8.4,0.2-12.4,0.5c-1.7-0.3-3.3-0.8-4.9-1.3c-0.5,0.3-0.9,0.8-1,1.3c-0.7-0.3-1-0.8-1-1.3c-0.5,0.5-1.1,0.8-1.8,0.8
			c-0.2-1-0.4-2-0.8-2.8c1.5-1.5,3.2-3.2,4.9-4.9c1.2-0.3,2.3-0.9,3.3-1.5c4.3-0.2,8.6-0.4,12.9-0.8c3.9-1.4,8.1-2.6,12.4-3.6
			C609.8,65.9,612.1,65.9,614.3,66z M596.3,113.7c-0.5-0.2-1-0.3-1.4-0.3c-0.4,0-0.7,0.3-0.9,0.8c-2.2,0.5-4.4,0.9-6.4,1
			c-0.7,1.9-1.4,3.6-2.1,5.2v5.7c0.2,0.5,0.5,0.9,1,1.3c2.1-1.4,3.9-2.7,5.7-4.1c2.7-3.3,5.6-6.6,8.5-10c0.5-0.3,1-0.6,1.5-0.8
			c0-0.7-0.2-1.2-0.5-1.5C599.8,111.5,598,112.5,596.3,113.7z M592.4,94.9c-0.9,2.6-1.4,5.2-1.5,7.7c1.5-0.2,3.4-0.3,5.7-0.3
			c1-0.9,2.1-1.6,3.3-2.3c-0.5-2.1-1.1-3.9-1.8-5.7c0-0.9,0.3-1.5,1-1.8c-0.3-0.7-0.9-0.9-1.5-0.8C595.9,92.8,594.1,93.8,592.4,94.9
			z M596.3,86.4c1.2,0.2,1.9-0.1,2.1-0.8c-0.7-0.3-1.3-0.5-1.8-0.5C595.9,85.4,595.8,85.9,596.3,86.4z M597.3,87.9
			c0.3,0.3,0.8,0.5,1.3,0.4c0.5-0.1,0.9-0.3,1-0.6c-0.5-0.5-1.1-0.8-1.8-0.8C597.1,87.2,597,87.6,597.3,87.9z M599.9,99
			c0.5,0.3,1,0.4,1.5,0.3c0.5-0.2,0.8-0.4,0.8-0.8c-0.9-0.7-1.5-1.3-1.8-1.8c0.9-0.7,1.2-1.4,1-2.1c-0.5,0-0.8,0.3-0.8,0.8
			c-0.3-0.5-0.7-0.9-1-1C599.6,95.9,599.7,97.5,599.9,99z M600.1,84.8c-0.3,0.7-0.3,1.4,0,2.1c0.2,0,0.5,0.2,1,0.5
			c0.3-0.9,0.5-1.7,0.5-2.6C601,84.1,600.5,84.1,600.1,84.8z M638.8,62.7c1.2,1.2,2.3,2.5,3.3,3.9c-0.3,1-0.3,2.1,0,3.1
			c-0.9,1.2-2,2.1-3.3,2.8c-1.9,2.7-3.7,5.7-5.4,8.8c0.9,0.9,2.1,1.5,3.6,1.8c1.5,0.3,3.2,0.6,4.9,0.8c3.8,1,7.6,2.3,11.3,3.9
			c1.4,1,2.7,2.2,3.9,3.6c1.2,1.4,2.6,2.9,4.1,4.6c1.2,2.7,2.4,5.6,3.6,8.5c0.2,2.2,0,4.6-0.5,7c-1.5,3.4-3.3,6.8-5.4,10
			c-2.2,2.4-4.5,4.8-6.7,7.2c-2.9,2.7-6,5.2-9.3,7.2l-0.5-0.5c-1.4,0.5-2.7,0.9-3.9,1.3h-6.7c-0.5-0.5-1-0.8-1.5-0.8
			c0.2-0.5,0.3-1,0.5-1.5l-0.8-0.8c-1.2,0-2.2,0-3.1,0c-0.2-0.2-0.1-0.5,0.3-1c-1-0.7-2.1-1.1-3.1-1.3c-0.2-0.5-0.1-0.9,0.3-1.3
			c-1.2-0.9-2.2-1.5-3.1-2.1c0-0.3,0.3-0.5,1-0.5c0.7,0,1.4,0.1,2.1,0.4c0.7,0.3,1.2,0.1,1.5-0.4h4.1c2.6-1.5,5.2-3,8-4.4
			c1.2-1.5,2.7-2.8,4.4-3.9c1.5-2.4,3.3-4.7,5.4-7c1.2-2.2,2.4-4.5,3.6-6.7c0.2-1.4,0.3-2.7,0.3-4.1c-0.7-1.4-1.3-2.7-1.8-3.9
			c-1.4-0.9-2.8-1.7-4.4-2.6c-3.6-0.9-7-1.7-10.2-2.4c-3.2-0.8-6-2-8.4-3.7c-1.5-2.7-2.9-5.5-4.1-8.2c-0.2-2.1-0.3-4-0.3-5.9
			c0.5,0,1-0.2,1.5-0.5c0.9-1.2,1.1-2.3,0.8-3.3c1.5-1.4,3.2-2.7,4.9-4.1c-0.2-0.9,0.2-1.5,1-1.9c0.9-0.4,1.9-1,3.1-1.7
			C635.4,62.6,637.1,62.5,638.8,62.7z M629.5,96.9c1.4,0.2,2.7,0.4,4.1,0.8c0.9,0.7,1.9,1.5,3.1,2.3c0.3,1.2,0.9,2.5,1.5,3.9
			c0.2,2.4,0.2,4.9,0,7.5c-0.7,0.5-1.1,1.1-1.3,1.8c-1.2,0.5-2.4,0.9-3.6,1.3c-1.7-0.5-3.3-1-4.6-1.5c-1.7-2.6-3.3-5.2-4.6-7.7
			c0-1.2-0.2-2.2-0.5-3.1c0.9-0.7,1.8-1.1,2.8-1.3v-1.3C627.5,98.5,628.5,97.6,629.5,96.9z"/>
		<path class="st7" d="M790.3,40.3c0.9,0.7,1.7,1.5,2.6,2.6v1.5c-0.9,0.9-1.7,1.7-2.6,2.6c-0.7-0.2-1.3-0.1-1.8,0.3
			c1.2,0.5,2.7,1,4.4,1.5c0.9,0.9,1.7,2,2.6,3.3c-0.3,0.3-0.5,1.2-0.5,2.6c-1.2,0.3-2.3,0.8-3.3,1.3c-5.8,0-11.4,0.3-16.7,0.8
			c-0.5,0.2-0.9,0.6-1,1.3c-0.2,1.4-0.1,2.7,0.3,3.9c4.3,0.2,8.6,0.5,12.9,1c1.5,0.7,3.2,1.3,4.9,1.8c1.5,1.2,3.1,2.3,4.6,3.3
			c0.7,0.9,1.5,1.8,2.3,2.8c1,2.6,2.1,5.3,3.1,8.2c0,5.5,0,11,0,16.5c-0.5,0.5-0.8,1.2-0.8,2.1c-0.2,4.6-0.3,9.1-0.5,13.4
			c-0.7,1.2-1.2,2.5-1.5,3.9c-2.2,0-4.5,0-6.7,0c-0.5-1.2-1.4-2.1-2.6-2.6c-0.7-5.8-0.7-11.3,0-16.5c-4.3,2.1-8.8,3.9-13.7,5.4
			c0.3,4.5,0.6,9,0.8,13.7c0.3,0.3,0.8,0.7,1.3,1c0.7-0.5,1.5-0.9,2.6-1.3c1,0.5,2.2,0.8,3.6,0.8c1,0.7,2.1,1.4,3.3,2.1
			c0.7,0.9,1.1,1.9,1.3,3.1c1.4,0.5,2.9,0.7,4.6,0.5c4.5-1.4,9.2-2.4,14.2-3.1c0.7,1,1.8,1.5,3.3,1.5c0,1,0.2,2.1,0.5,3.3
			c-1.2,0.9-2.2,1.9-3.1,3.1c-5.7,1.5-11.3,2.7-17,3.6c0.2,2.4,0.3,5,0.3,7.7c0,0.7,0.3,1.2,0.8,1.5c-0.5,3.8-0.9,7.4-1.3,10.8
			c-0.9,0.9-1.5,1.9-1.8,3.1c-1,0.9-2.1,1.7-3.1,2.6c-3.3,0.9-6.4,2.1-9.5,3.6c-0.9,0-1.5-0.2-2.1-0.5c-2.6,0.7-5.1,1.5-7.5,2.3
			l-1-1c-1.5,0.2-2.7,0-3.6-0.5c-1.4,0.2-2.8,0.4-4.4,0.8c-0.5-0.3-0.9-0.7-1.3-1c-1-0.2-1.8,0.1-2.3,0.8c-1-0.3-1.4-0.9-1-1.5
			c-2.4-0.2-4.6-0.7-6.4-1.5c1.4-0.9,3.1-1.2,5.2-1c0-0.3-0.1-0.7-0.3-1h2.3c4.5-1,8.8-2.3,13.1-3.9c1.9-1,3.9-2.1,5.9-3.3
			c0.5-0.2,1-0.1,1.5,0.3c0.3-0.3,0.8-0.7,1.3-1c0.3-1.5,0.9-2.8,1.5-3.9c0-4.3-0.3-8.3-0.8-12.1c-0.7-0.7-1.4-1.1-2.1-1.3
			c-5.8-0.2-11.4,0-16.7,0.5c-0.9,0-1.2,0.3-1,1c1.9,1,3.4,2.6,4.6,4.6v2.8c-0.5,0.7-0.9,1.5-1.3,2.6c-1.9,0.2-3.6,0.8-5.2,1.8
			c-1.7-0.3-3.3-0.5-4.9-0.5c-0.9-0.9-1.7-1.3-2.6-1.3c-0.5-1.5-1.1-2.9-1.8-4.1c-0.7,0-1.1-0.3-1.2-0.8c-0.1-0.5,0.1-0.9,0.6-1.3
			c-0.9-0.5-1-1-0.5-1.4c0.5-0.4,1.1-0.8,1.8-1.2l-0.8-0.8c-3.4,1-7,1.7-10.6,2.1c-2.4-1.4-4.5-2.8-6.2-4.4c0.7-1.2,1.3-2.2,1.8-3.1
			c0.5,0.2,1.2,0.1,2.1-0.1c0.9-0.3,1.7-0.6,2.6-1.2c3.3-0.5,6.6-0.9,10-1.3c0.3-0.2,0.6-0.4,0.8-0.8c6-0.5,12.2-1,18.5-1.5
			c3.6-0.2,7.1,0,10.6,0.5c0.5-1,0.7-2.1,0.5-3.1l-1.3-1.3c-0.5,0-0.9,0.3-1.3,0.8c-0.7-0.5-1.3-0.7-1.9-0.6
			c-0.6,0.1-1.2,0.2-1.7,0.4c-1-0.5-1.9-0.9-2.6-1.3c-1.7-3.9-3.1-8-4.1-12.1c-4.5,0.3-8.8,1.3-12.9,2.8c0.2,3.4,0.5,6.9,1,10.3
			c-0.7,0.5-1.4,1.1-2.1,1.8c-1.9-0.3-3.6-0.6-5.2-0.8c-0.9-0.5-1.3-1-1.4-1.5c-0.1-0.5-0.1-1-0.1-1.5c-1-1.4-1.8-2.7-2.3-3.9v-6.4
			c-0.3-0.5-0.7-0.8-1-0.8c0.2-1.7,0.8-3.1,1.8-4.1c-0.2-1.2-0.1-2.3,0.3-3.3c-1-0.5-2-0.8-2.8-0.8c-0.9,0-1.5,0.3-1.8,0.8h-4.1
			c-1.4,0.2-2.6,0.6-3.6,1.3c0,9.6-0.2,19.2-0.5,28.9c-0.3,0.7-0.8,1.4-1.3,2.1v2.1c-0.9,1.5-1.5,3.3-2.1,5.2
			c-0.5-0.2-0.9-0.1-1,0.3v2.3c-0.5,0.3-0.9,0.3-1.3,0v1.5c-1,0-2-0.1-2.8-0.3c-0.9-0.2-1.3-0.5-1.3-1c-0.2-2.7-0.3-5.4-0.5-8
			c-0.5-0.3-0.9-0.6-1-0.8c-1.2-10.5-2.2-20.4-3.1-29.9c-5.2,0.9-10.4,1.5-15.7,2.1c-2.4-0.3-4.7-0.9-7-1.5c-0.3-1.5-0.4-3-0.3-4.4
			c0.9,0,1.7-0.1,2.6-0.3c-0.2-0.5-0.1-0.9,0.3-1.3h4.9c2.7-0.7,5.6-1.4,8.5-2.1c0.7,0,1.5,0.1,2.6,0.3c1.4-0.7,2.8-1.2,4.4-1.5
			c0.3-3.1,0.5-6.4,0.5-10c0.7-1,1.1-2.2,1.3-3.6c0.9-0.5,2-0.5,3.3,0c0.3-0.2,0.6-0.4,0.8-0.8c1.5,0.3,3.2,0.8,4.9,1.3
			c1.2,1,2.3,2.2,3.3,3.6c0.2,2.2,0.3,4.6,0.5,7c0,0.3,0.3,0.6,0.8,0.8c2.6-0.3,5.2-0.4,8-0.3c0.2-0.3,0.5-0.6,1-0.8
			c-0.2-0.5-0.4-0.8-0.8-0.8c0-0.9,0.1-1.5,0.3-2.1c1.4-1.2,2.7-2.5,4.1-3.9c0.3-3.4,0.6-7,0.8-10.8c-0.5-1.2-0.7-2.4-0.5-3.6
			c1.4-0.7,2.8-1.3,4.4-1.8h2.6c0.3-0.3,0.6-0.7,0.8-1c3.3-0.3,6.5-0.9,9.8-1.8c0-1.7-0.1-3.2-0.3-4.4c-5.8,1-11.6,1.8-17.3,2.3
			c-2.2-0.9-4.3-2-6.2-3.3c-0.2-1-0.2-2.1,0-3.1c0.2-0.3,0.9-0.6,2.3-0.9c1.4-0.3,2.3-0.6,2.8-0.9c6.4-1,12.7-2.1,19.1-3.3
			c0-1.7,0.1-3.4,0.3-5.2c0.3-0.5,0.9-0.9,1.5-1c0.2,0.3,0.6,0.5,1.3,0.5c0.5-1,1.4-1.5,2.6-1.3c2.7,1.9,5.5,3.9,8.2,5.9
			c4.1-0.3,8.1-0.7,11.8-1c-1.7-0.7-3.3-1.4-4.9-2.1c-0.7-1-1.2-1.8-1.7-2.4c-0.4-0.6-0.4-1,0-1.2c0.4-0.2,0.8-0.2,1.2,0
			c0.5-0.7,0.9-1.3,1.3-1.8C784.9,39.8,787.5,39.9,790.3,40.3z M755.7,87.7c-2.1,0.5-4,1.2-5.9,2.1v6.4c0.2,0.7,0.6,1.3,1.3,1.8
			c3.8-0.5,7.4-1.4,10.8-2.6c-0.5-2.7-0.9-5.5-1-8.2C759,87.1,757.3,87.3,755.7,87.7z M751.6,72.5c-0.2,2.7-0.3,5.4-0.5,8
			c3.4-0.3,6.5-1.1,9.3-2.3c-0.5-2.1-0.7-4.3-0.5-6.7C757.1,71.3,754.4,71.6,751.6,72.5z M773.8,69.9c-0.7,2.4-0.7,4.6,0,6.7
			c4.3-0.5,8.9-0.7,13.9-0.5c0.3-0.2,0.6-0.4,0.8-0.8c-0.5-1.2-1-2.2-1.5-3c-0.5-0.8-1.1-1.3-1.8-1.7c-2.1-0.5-4-0.9-5.9-1.3
			C777.1,69,775.3,69.2,773.8,69.9z M773.5,84.6c0.2,1.9,0.3,3.9,0.3,5.9c0.3,0.7,0.8,1.5,1.3,2.3c1.7-0.5,3.6-0.9,5.7-1.3
			c2.7-1.4,5.6-2.6,8.5-3.6c0.2-0.7,0.5-1.2,1-1.5c0.2-1.4,0-2.5-0.5-3.3C784.1,82.9,778.7,83.4,773.5,84.6z"/>
		<path class="st7" d="M873.7,40.5c2.6,1.5,5.2,3.1,7.7,4.6c0,2.2-0.3,4.4-1,6.4l-1.3,1.3c-0.2,0.3-0.1,0.8,0.3,1.3
			c3.9,0,8.2,0,12.6,0c4.3,0.9,8.8,1.8,13.7,2.8c3.3,0,6.4-0.3,9.5-0.8c1.5,0.7,3.2,1.2,4.9,1.5c0.5,0.9,1,1.9,1.5,3.1V65
			c-0.3,0.3-0.6,0.7-0.8,1c-0.3,7-0.7,14-1,20.9c-1.2,3.1-1.9,6.4-2.1,10c-0.5,1-1.1,1.9-1.8,2.6c-1.5,0.2-2.7,0.2-3.3,0
			c-1,0.5-1.7,1.2-2.1,2.1c-0.3-0.2-0.6-0.4-0.8-0.8c-0.3,0.3-0.6,0.7-0.8,1c-0.3-0.7-0.8-1-1.3-1c-0.5-2.7-0.9-5.7-1-8.8
			c0-7.4,0.5-14.4,1.5-21.1c0.2-1.4,0-2.6-0.5-3.6c-5.3-1-10.5-2.1-15.5-3.1c-12.5-0.2-25.2-0.2-37.9,0c-1.9,0.7-3.6,1.8-5.2,3.3
			c-0.2,3.1-0.6,6.2-1.3,9.3c0,5.3-0.2,10.7-0.5,16.2c0.3,3.1,0.7,6.4,1,10c-0.5,0.3-0.9,0.9-1,1.8c-1.9,0.7-3.8,1.1-5.7,1.3
			c-0.9-0.5-1.7-0.9-2.6-1.3c-0.5-1.7-1.5-3.1-2.8-4.1c-0.7-9.1-0.7-18.2,0-27.3c0.5-3.8,1.3-7.3,2.3-10.6c1.7-1.4,3.7-2.9,5.9-4.5
			c2.2-1.6,4.8-2.9,7.7-3.7c6.7,0.2,13.3,0,19.8-0.5c-0.3-0.7-0.8-1-1.3-1h-2.3c0-0.7-0.2-1.2-0.5-1.5c-0.7,0.2-1.3,0.2-1.8,0
			c0.5-1.7,0.7-3.5,0.5-5.4c0.5-1.5,1.4-2.8,2.6-3.9c0.2,0.2,0.4,0.3,0.8,0.5C871.3,42,872.5,41.2,873.7,40.5z M867,70.1
			c-0.2,1-0.1,2.1,0.3,3.1c0.3-0.2,0.7-0.3,1-0.3c0.2,1,0.7,1.9,1.5,2.6c1.5-0.2,3.1-0.5,4.6-1c4.6,0,9.4-0.1,14.2-0.3
			c1,0.7,2.2,1.4,3.6,2.1c1.2,0,2.5,0.3,3.9,0.8c0.9,0.7,1.5,1.6,2.1,2.8c-0.2,1-0.1,2.1,0.3,3.3c-3.3,6-6.8,11.9-10.6,17.8
			c1.5,0.7,3.3,1.3,5.3,1.8c2,0.5,4.1,0.9,6.3,1.3c9.8,3.6,19.6,7.3,29.4,11.1c0.7,0.9,1.4,1.8,2.1,2.8c0.2,1,0,2-0.5,2.8
			c-1,0.7-2.1,1.5-3.3,2.6h-3.6c-9.8-3.6-19.6-7.2-29.4-10.8c-4-0.9-7.8-1.6-11.6-2.3c-2.8,3.8-5.5,7.4-8.2,10.8
			c-0.2,0.5,0.1,0.9,0.8,1.3c2.1-1.5,4-3.1,5.9-4.6c1.2,0.5,2.1,1.6,2.8,3.3c0.7,0,1.3-0.3,1.8-0.8h4.6c0.2-0.3,0.4-0.7,0.8-1
			c2.2-0.2,4.4,0,6.4,0.5c2.7,1.7,5.5,3.6,8.2,5.7c0.2,0.7,0.5,1.4,1,2.1c0,1.2-0.1,2.6-0.3,4.1c-1.9,4.5-3.8,8.9-5.7,13.4
			c-2.1,2.1-3.6,4.5-4.6,7.2c-2.7,2.2-5.5,4.4-8.2,6.4c-0.9,0-1.6,0.3-2.3,0.8c-3.1,0.2-5.9,0-8.5-0.5c-1.9-1.5-3.7-3-5.4-4.4
			c-2.4-3.6-4.3-7.2-5.7-10.8c-0.2-1.5-0.2-3,0-4.4c1.5-3.4,2.8-6.7,3.9-9.8c-0.7,0-1.2,0.2-1.5,0.5c-2.6,4.8-5.5,9.5-8.8,14.2
			c-1.2,0-2.3,0.3-3.3,0.8c-0.7-0.3-1.1-0.7-1.3-1.2c-0.2-0.4-0.2-0.7,0-0.9c-0.7-0.3-1.2-0.8-1.5-1.3c-1.7,0-3.2,0-4.4,0
			c0-1.4-0.4-2.4-1.3-3.1c6.2-9.1,12.2-18.2,18-27.3c0.7-0.5,1.4-0.9,2.1-1.3c0.2-1.4,0.8-2.7,1.8-4.1c-0.9-1-1.8-1.5-2.8-1.3
			c-0.9-0.9-1.5-1.7-1.8-2.6c-0.5-0.2-0.9-0.1-1.3,0.3c-0.5,3.1-1.1,6.2-1.8,9.3c-0.9,1.4-1.8,2.7-2.8,3.9c-1.9-0.3-3.3-0.9-4.4-1.8
			c-0.9,0-1.7,0-2.6,0c-0.2-0.9-0.3-1.6-0.5-2.3c0-3.6,0.3-7.1,0.8-10.6c1.9-6.9,3.4-13.9,4.6-21.1c1-2.2,2.2-4.3,3.6-6.2v-2.1
			c0.5-0.7,1.1-1.2,1.8-1.5C863.8,69.9,865.3,70,867,70.1z M868.1,85.6c-0.5,0.3-0.9,0.8-1,1.3c-0.5,2.7-1,5.6-1.5,8.5
			c0.5,0.5,1.2,0.9,2.1,1.3c0.7-0.3,1.7-0.3,3.1,0.1c1.4,0.4,2.5,0.6,3.3,0.6c0.7-1,1.5-2,2.3-2.8c1.9-3.8,3.6-7.4,5.2-10.8
			C877,84.5,872.5,85.1,868.1,85.6z M876.8,143.8c0,0.7,0.2,1.5,0.6,2.3c0.4,0.9,1.2,1.8,2.4,2.8h2.1c2.7-2.1,5.2-4.3,7.5-6.7
			c1.7-2.9,3.5-5.8,5.4-8.8c0-1.2,0.2-2.2,0.5-3.1c-2.7-1.2-5.7-1.8-8.8-1.8c0.3-1.4,0-2.3-1-2.8
			C882.3,131.6,879.4,137.6,876.8,143.8z"/>
	</g>
	<g>
		<path class="st7" d="M310.3,164.8c0.3-0.1,0.7-0.1,1.1,0.2c0.4,0.2,0.9,0.2,1.5-0.2c0.5,0.6,1,1.3,1.6,2.1c-0.1,2.2-0.4,4.5-0.9,7
			c-0.7,1.3-1.2,2.7-1.6,4.3s-0.5,3.1-0.5,4.6c-1.5,3.7-2.6,7.7-3.3,11.9c0,0.2,0.2,0.4,0.5,0.5c2.3-0.3,4.8-0.5,7.5-0.3
			c2.2,0.6,4.4,1.3,6.5,2.1c0.5,0.7,1,1.2,1.7,1.4c0.6,1,1.3,2.1,2.3,3.1c0.5,1,0.9,2.2,1.2,3.5c-0.1,1.3-0.3,2.5-0.7,3.7
			c-1.7,1.9-3.2,3.9-4.4,6.1c-1.4,0.8-2.5,1.7-3.3,2.8c-2.4,1.3-4.8,2.5-7.2,3.7c-1.9,0.3-3.7,0.3-5.4,0c-1-0.8-2-1.7-3-2.8
			c-0.5-0.1-0.8-0.1-1,0.2c-0.2,0.6-0.3,1.3-0.3,2.1H302c-0.2,0.6-0.6,1.2-1,1.7c-1.2-0.1-2.2-0.2-3.1-0.3c-0.5-0.6-1-0.9-1.6-0.9
			c-0.5-2-0.8-4-1-5.9c0.2-1.6,0.8-3,1.6-4.2c0.3-2.8,0.8-5.5,1.4-8c0.3-0.9,0.8-1.8,1.2-2.6c1.3-5.1,2.4-10.2,3.5-15.4
			c2.2-6.5,4.4-13,6.5-19.6C309.6,165.2,310,164.9,310.3,164.8z M308.9,201c-0.9,0.7-1.7,1.4-2.4,2.1c-1.2,4.1-2,8.2-2.6,12.4
			l0.5,0.5c1.4,0,2.7-0.1,4-0.3c2.2-1.7,4.4-3.5,6.6-5.4c1.3-2.1,2.5-4.2,3.7-6.3c-0.2-0.9-0.7-1.6-1.3-2.1c-0.6-0.5-1.3-0.8-1.8-1
			c-1.3,0-2.4-0.1-3.5-0.3C310.9,200.6,309.9,200.7,308.9,201z M316.1,208.9c-0.2,0.4-0.1,0.7,0.3,0.8c0.4,0.1,0.8,0.1,1.3,0
			c0-0.3-0.1-0.6-0.2-0.9C316.8,208.5,316.3,208.5,316.1,208.9z"/>
		<path class="st7" d="M352.4,164.3l0.7,0.7c0.5-0.1,0.9-0.2,1.4-0.2c0.3,0.5,0.9,0.8,1.6,0.9c0.3,1.5,0.4,3.3,0.2,5.2
			c-0.3,0.6-0.6,1.2-0.7,1.9c-0.1,2.4-0.3,5-0.5,7.7c-0.2,0.2-0.4,0.5-0.5,0.7c0,0.9,0,2,0,3.1c-1.2,5.4-2.2,10.8-3,16.2
			c0.1,1.5,0,3.2-0.3,5.1c-0.3,1.9-0.8,3.8-1.4,5.9c0,0.2,0.2,0.4,0.5,0.5c2.8-2.6,5.8-4.8,9.1-6.6c0.3,0.2,0.7,0.4,1,0.5
			c-0.2,0.1-0.3,0.4-0.2,0.8c0.1,0.4,0.5,0.7,1,0.8c-0.5,1.3-0.8,2.6-1,3.8c-1.2,1-1.9,2.3-2.3,3.8c-1.3,1-2.4,2.1-3.3,3.1
			c-1.6,0.9-3.3,1.7-5.1,2.3h-1.2c-0.6,0.2-1,0.6-1.2,1.2c-0.6,0.1-1.2,0.2-1.7,0.3c-1.2-0.7-2.3-1.2-3.3-1.6
			c0.3-2.6,0.9-5.2,1.6-7.9c0.8-3.1,1.7-6.2,2.8-9.1c-0.1-0.6-0.1-1.1-0.1-1.5c0.1-0.4,0.2-0.7,0.4-0.8c0-1.2,0.1-2.3,0.3-3.4
			c0.2-1.1,0.5-2.2,1-3.2c-0.2-0.6-0.3-1.1-0.2-1.6c0.8-6.2,1.6-12.2,2.4-18.2c-0.2-2.8-0.2-4.9,0.2-6.3c0.5-1,0.7-2,0.7-3
			C351.7,165.1,352.1,164.5,352.4,164.3z"/>
		<path class="st7" d="M399.6,185.1c0.8,0.3,1.7,0.7,2.6,1c1,1.4,1.9,3,2.6,4.7v4.5c-0.9,2.1-1.6,4.4-2.1,7
			c-0.8,1.6-1.7,3.3-2.6,4.9c-0.3-0.1-0.6-0.1-0.7,0.2c-0.6,0.8-0.9,1.7-1,2.8c-0.3,0.1-0.6,0.2-0.9,0.2c-1,1.6-2.2,3.1-3.3,4.5
			c-0.8,0.6-1.6,1.2-2.4,1.7c-0.3,0.5-0.7,1-1,1.6c-1.5,0.6-2.9,1.3-4,2.1c-2.2,0.2-4.2,0.7-5.9,1.4c-1,0.1-2,0.1-2.8,0
			c-1.5-0.6-2.9-1.2-4.2-1.9c-0.8-0.9-1.6-1.8-2.3-2.6c-0.6-1.5-1.2-2.9-1.7-4.2c0-1.6-0.2-3-0.7-4.2c0.2-1.3,0.4-2.6,0.5-4
			c1.3-2.4,2.5-4.9,3.7-7.3c2-2.6,4.3-4.9,7-7c0.9-0.3,1.9-0.7,2.8-1c0.6,0.3,1.4,0.5,2.4,0.5c0.3-0.5,0.5-0.9,0.3-1.4
			c2.6-1,5.1-2.2,7.5-3.3C395.3,185.3,397.3,185.2,399.6,185.1z M387.3,194c-1.9-0.1-3.6,0-5.1,0.3c-2.1,3.7-4.2,7.3-6.3,10.8
			c-0.2,2-0.3,4-0.3,6.1c0.3,0.5,0.8,0.9,1.4,1.3c0.6,0.4,1.3,0.8,2.3,1.3h4.2c1.3-0.6,2.6-1.2,4-1.7c0.3-0.7,0.6-1.3,0.9-1.7h1
			c1.7-1.9,3.4-3.8,5.1-5.8c0.9-2.4,1.8-4.9,2.6-7.3c0-2.1-0.2-4-0.5-5.6h-2.3C391.9,192.4,389.5,193.2,387.3,194z"/>
		<path class="st7" d="M432.4,184.2h1.6c0.5,0.3,1.2,0.7,2.1,1c0.3,1.4,0.6,2.9,0.9,4.4c0.9,0.2,1.6,0.8,2.1,1.6
			c0.5-0.1,0.9-0.1,1.4,0.2v1.6c0.2,0.3,0.5,0.7,0.9,1c-0.1,2,0.1,3.9,0.5,5.8c1.2-0.3,2.2-1,3-1.9c1.3,0.1,2.4,0.2,3.5,0.3v3.3
			c-0.6,0.8-1,1.7-1.4,2.8c-1.6,1.4-3.2,2.7-4.7,4c0.1,3.5,0.1,7-0.2,10.6c-0.6,2.1-1.2,4.2-1.7,6.3c-1.5,1.9-3.1,3.6-4.7,5.2
			c-1.7,0.8-3.3,1.7-4.7,2.8c-1.5,0.2-2.9,0.6-4,1.2c-1.9,0.2-3.6,0.2-5.2-0.2c-1.7-1.2-3.5-2.4-5.2-3.8c-0.2-2.2-0.6-4.3-1-6.1
			c-0.3-0.1-0.3-0.5,0-1.2c0.3-0.7,0.3-1.2,0-1.6c0.2-0.2,0.5-0.8,0.7-1.6h0.7c0.2-0.6,0.7-1,1.3-1.3c0.6-0.3,1.3-0.7,2-1.1
			c1.5-1.6,3.2-3.1,5.1-4.4c0.2,0.1,0.5,0.3,0.7,0.7c0.5-0.2,0.9-0.5,1.4-0.7c0.5-0.2,0.6-0.5,0.3-0.9c-2.1-0.3-4.3-0.5-6.5-0.5
			c-1.4-0.8-2.7-1.6-4-2.4c-0.6-0.9-1.2-1.7-1.9-2.4c-0.5-1.4-0.9-2.6-1.4-3.5c-0.1-1.4-0.1-2.7,0-4c0.1-0.2,0.3-0.5,0.5-0.9
			c-0.2-0.1-0.1,0.1,0.5,0.5c0.3-1.5,0.8-3.1,1.2-4.7c1.4-1.4,3-2.7,4.9-3.8c0-0.6,0.2-1,0.7-1.4
			C424.9,187.1,428.5,185.5,432.4,184.2z M425.2,194.3c-1,0.9-2.1,1.9-3.1,2.8c-0.2,0.7-0.6,1.3-1,1.7c0.5,1.5,0.8,3.2,1,5.1
			c0.3,0.3,0.8,0.8,1.2,1.4c0.9,0,1.9-0.1,2.8-0.3c1.9-2.1,3.8-4.1,5.8-5.9c0.6-1.2,1-2.3,1.4-3.5c-0.1-1.5-0.3-2.9-0.7-4h-1.9
			C428.8,192.4,427,193.3,425.2,194.3z M432.4,213.2c-0.6,0.5-1,1.2-1.4,2.1c-0.8,0.2-1.6,0.5-2.4,0.7c-0.1,0.6-0.5,1-1,1.4
			c0-0.7-0.2-0.9-0.7-0.5c0,0.8,0.3,1.6,0.9,2.3c-0.6,0-0.7,0.2-0.3,0.7c0.3,0,0.6-0.1,0.9-0.3c-1.2,1.5-2.6,3-4.4,4.5
			c-0.6,0.6-0.9,1.3-1,2.1l0.3,0.3c1.2-0.1,2.3-0.4,3.3-0.9c2.1-1.6,4.1-3.4,6.1-5.2c0.5-2.4,0.9-4.8,1.4-7
			c-0.6-0.7-1.2-1.1-1.7-1.2C431.9,212.5,431.9,212.8,432.4,213.2z M423.3,211.3h1.6c0.3-0.3,0.4-0.7,0.2-1
			c-0.6-0.2-1.1-0.3-1.6-0.2C423,210.4,423,210.8,423.3,211.3z M425.2,221.7c0.3,0,0.7-0.1,1-0.3c0-0.3-0.1-0.6-0.2-0.9
			C425.3,220.6,425,221,425.2,221.7z M428.1,204.8c-0.2,0.3-0.1,0.6,0.1,0.7c0.2,0.1,0.5,0,0.8-0.3c0.3-0.3,0.3-0.6,0.1-0.8
			C428.6,204.3,428.3,204.5,428.1,204.8z M428.7,208.5c0.3,0,0.8-0.1,1.2-0.2c0-0.5-0.1-0.8-0.2-1h-1
			C428.4,207.6,428.4,208,428.7,208.5z M430.1,225.1c0.2-0.1,0.4-0.3,0.5-0.5c-0.3-0.6-0.7-1-1-1.2
			C429.2,224,429.4,224.6,430.1,225.1z M430.3,214.9c0.3,0,0.7-0.1,1-0.2c0-0.3-0.1-0.6-0.3-0.9c-0.2-0.2-0.5-0.3-0.7-0.2
			C429.9,214.1,429.9,214.5,430.3,214.9z M431.5,201.8c0.3,0,0.7-0.1,1-0.2c0-0.5-0.1-0.8-0.2-1c-0.5-0.1-0.8-0.2-1-0.2
			C431,200.9,431,201.4,431.5,201.8z M432,222.1c-0.1,0.3,0,0.7,0.3,1h0.9c0.2-0.3,0.3-0.7,0.3-1c-0.3-0.5-0.7-0.7-1-0.7
			C432.3,221.5,432.1,221.7,432,222.1z M432.5,206.3c-0.3,0.6-0.3,1.3,0.1,2h0.7c0.3-0.7,0.4-1.4,0.2-2.1c0.2,0,0.4-0.1,0.5-0.3
			c0.1-0.2,0.1-0.4,0-0.5C433.3,205.3,432.8,205.7,432.5,206.3z"/>
		<path class="st7" d="M465.4,214.6c0.8,0.7,1.5,1.7,2.1,3v2.6c-0.5,0.5-0.9,1-1.4,1.6c-0.9,0.6-1.9,1.1-2.8,1.6
			c-1-0.2-2.1-0.3-3.1-0.2c-0.2-0.7-0.6-1.2-1.2-1.6c-0.1-1.3,0.1-2.4,0.5-3.5c-0.3-0.2-0.6-0.5-0.7-0.8c-0.1-0.3-0.1-0.6,0.2-1
			c0.7-0.2,1.1-0.6,1.2-1.2c1.4-0.3,2.9-0.3,4.4,0C464.5,214.6,464.8,214.5,465.4,214.6z"/>
		<path class="st7" d="M502.6,184.4h3.7c1.3,0.7,2.6,1.6,4,2.6c0.1,0.7,0.5,1.3,1.2,1.9c0.5,2,0.9,4.1,1.4,6.3
			c0.1,3.1,0.2,6.5,0.2,10c-0.5,1.5-0.7,3.2-0.7,5.1c0.1,2.2,0.2,4.6,0.2,7.2c-0.2,0.6-0.5,1.2-0.7,1.9c-0.5,0.1-0.9,0.4-1.2,0.9
			c-0.8-0.3-1.7-0.4-2.6-0.2c-0.5-0.5-0.9-0.8-1.4-0.9c-0.3-1-0.6-2.1-0.7-3.1c-0.3,0-0.6-0.1-0.9-0.2c-0.1-0.6-0.3-1.1-0.5-1.6
			c0.2-5.8,0.6-11.6,1.2-17.3c-0.3-1.6-0.6-3.2-0.9-4.7c-0.2-0.2-0.5-0.4-0.9-0.4c-0.3-0.1-0.6,0-0.9,0.3c-1.2,1.7-2.2,3.5-3.1,5.2
			c-1.7,5.5-3.2,11.1-4.4,16.9c0,1.5-0.2,3-0.5,4.5c-0.6-0.1-0.9,0.2-1,1c-0.8-0.3-1.6-0.3-2.3,0c-0.3-0.6-0.8-1-1.4-1.2
			c0-0.7-0.2-1.3-0.5-1.7c-0.7,0-1-0.2-1-0.7c0.1-4.9,0.4-9.7,0.9-14.3c-0.3-2.1-0.7-4.1-1-6.1c-0.7,0.5-1.4,1-2.1,1.7
			c-0.9,1.2-1.8,2.4-2.6,3.8c-1.7,3.8-3,7.9-3.8,12c-0.1,1.9-0.2,3.8-0.2,5.9c-0.5,0.8-0.9,1.7-1.2,2.6c-0.8-0.2-1.5-0.5-2-0.7
			c-0.5-0.2-0.7-0.6-0.6-1c-0.5-0.6-1-0.9-1.7-1c-0.6-1-0.8-2-0.7-3c-0.3-0.2-0.6-0.3-0.7-0.3c0.3-4,0.8-7.9,1.4-11.9
			c0.6-4,1.4-7.9,2.4-11.7h0.5c-0.1-0.6-0.1-1.1,0-1.6c1.2-1.2,2.2-2.5,3.1-4c0.5,0,0.9,0,1.4,0c0.8,1.2,1.5,2.3,1.9,3.5
			c1.5-1,3-2.1,4.5-3.1c1.6-0.5,3.1-0.6,4.4-0.3c0.6,0.5,1.2,0.9,1.9,1.4c0,1.2,0.3,2.2,1,3.1c0.8-1.3,1.7-2.7,2.8-4.2
			C499.8,186.1,501.2,185.2,502.6,184.4z M475.9,198.5c0.1,0.1,0.3,0,0.5-0.3c0.2-1.4,0.3-2.6,0.2-3.5
			C476,195.8,475.7,197.1,475.9,198.5z"/>
		<path class="st7" d="M551.3,185.1c0.8,0.3,1.7,0.7,2.6,1c1,1.4,1.9,3,2.6,4.7v4.5c-0.9,2.1-1.6,4.4-2.1,7
			c-0.8,1.6-1.7,3.3-2.6,4.9c-0.3-0.1-0.6-0.1-0.7,0.2c-0.6,0.8-0.9,1.7-1,2.8c-0.3,0.1-0.6,0.2-0.9,0.2c-1,1.6-2.2,3.1-3.3,4.5
			c-0.8,0.6-1.6,1.2-2.4,1.7c-0.3,0.5-0.7,1-1,1.6c-1.5,0.6-2.9,1.3-4,2.1c-2.2,0.2-4.2,0.7-5.9,1.4c-1,0.1-2,0.1-2.8,0
			c-1.5-0.6-2.9-1.2-4.2-1.9c-0.8-0.9-1.6-1.8-2.3-2.6c-0.6-1.5-1.2-2.9-1.7-4.2c0-1.6-0.2-3-0.7-4.2c0.2-1.3,0.4-2.6,0.5-4
			c1.3-2.4,2.5-4.9,3.7-7.3c2-2.6,4.3-4.9,7-7c0.9-0.3,1.9-0.7,2.8-1c0.6,0.3,1.4,0.5,2.4,0.5c0.3-0.5,0.5-0.9,0.3-1.4
			c2.6-1,5.1-2.2,7.5-3.3C547,185.3,549.1,185.2,551.3,185.1z M539.1,194c-1.9-0.1-3.6,0-5.1,0.3c-2.1,3.7-4.2,7.3-6.3,10.8
			c-0.2,2-0.3,4-0.3,6.1c0.3,0.5,0.8,0.9,1.4,1.3c0.6,0.4,1.3,0.8,2.3,1.3h4.2c1.3-0.6,2.6-1.2,4-1.7c0.3-0.7,0.6-1.3,0.9-1.7h1
			c1.7-1.9,3.4-3.8,5.1-5.8c0.9-2.4,1.8-4.9,2.6-7.3c0-2.1-0.2-4-0.5-5.6H546C543.6,192.4,541.3,193.2,539.1,194z"/>
		<path class="st7" d="M594.8,185.1c0.8,0.3,1.7,0.7,2.6,1c1,1.4,1.9,3,2.6,4.7v4.5c-0.9,2.1-1.6,4.4-2.1,7
			c-0.8,1.6-1.7,3.3-2.6,4.9c-0.3-0.1-0.6-0.1-0.7,0.2c-0.6,0.8-0.9,1.7-1,2.8c-0.3,0.1-0.6,0.2-0.9,0.2c-1,1.6-2.2,3.1-3.3,4.5
			c-0.8,0.6-1.6,1.2-2.4,1.7c-0.3,0.5-0.7,1-1,1.6c-1.5,0.6-2.9,1.3-4,2.1c-2.2,0.2-4.2,0.7-5.9,1.4c-1,0.1-2,0.1-2.8,0
			c-1.5-0.6-2.9-1.2-4.2-1.9c-0.8-0.9-1.6-1.8-2.3-2.6c-0.6-1.5-1.2-2.9-1.7-4.2c0-1.6-0.2-3-0.7-4.2c0.2-1.3,0.4-2.6,0.5-4
			c1.3-2.4,2.5-4.9,3.7-7.3c2-2.6,4.3-4.9,7-7c0.9-0.3,1.9-0.7,2.8-1c0.6,0.3,1.4,0.5,2.4,0.5c0.3-0.5,0.5-0.9,0.3-1.4
			c2.6-1,5.1-2.2,7.5-3.3C590.4,185.3,592.5,185.2,594.8,185.1z M582.5,194c-1.9-0.1-3.6,0-5.1,0.3c-2.1,3.7-4.2,7.3-6.3,10.8
			c-0.2,2-0.3,4-0.3,6.1c0.3,0.5,0.8,0.9,1.4,1.3c0.6,0.4,1.3,0.8,2.3,1.3h4.2c1.3-0.6,2.6-1.2,4-1.7c0.3-0.7,0.6-1.3,0.9-1.7h1
			c1.7-1.9,3.4-3.8,5.1-5.8c0.9-2.4,1.8-4.9,2.6-7.3c0-2.1-0.2-4-0.5-5.6h-2.3C587.1,192.4,584.7,193.2,582.5,194z"/>
		<path class="st7" d="M618.8,185.4c0.6,0.6,1.2,1.3,1.7,2.1h1.4c1.4-0.8,2.9-1.5,4.4-2.1c2.3-0.3,4.8-0.5,7.5-0.3
			c1.7,0.6,3.4,1.5,4.9,2.6c0.1,0.5,0.4,0.9,0.9,1.2c0.2,1.7,0.5,3.6,0.7,5.6c-0.3,2.6-0.8,5.1-1.2,7.5c-0.2,2.9-0.4,5.9-0.5,8.9
			c0.5,0.3,1,0.5,1.7,0.3c0.7-0.7,1.5-1,2.4-1c0.3,0.2,0.8,0.5,1.2,0.7c0.1,0.9,0.5,1.7,1,2.3c-0.7,2.1-1.6,4.3-2.6,6.5
			c-1.2,0.6-2.2,1.2-3.1,1.9c-2,0.1-3.9,0.1-5.8,0c-1.7-1.3-3.3-2.7-4.7-4.2c-0.6-0.8-1-1.7-1.2-2.6c0.6-3.6,1.2-7.1,1.9-10.5
			c0.2-4,0.6-7.7,1.2-11.3c-0.1-0.5-0.3-0.8-0.7-0.9c-0.8,0-1.6,0.1-2.3,0.2c-1.5,0.8-3,1.7-4.5,2.8c-0.8,0.8-1.6,1.7-2.4,2.6
			c-1,1.7-1.9,3.6-2.6,5.4c-1,4.5-1.8,9.3-2.3,14.1c-0.9,0.5-1.6,1.1-2.1,1.9c-1.2-0.1-2.1-0.3-2.7-0.5c-0.6-0.2-1.1-0.2-1.3,0.2
			c-0.2-0.7-0.6-1.2-1.2-1.4c0-0.7-0.1-1.3-0.2-1.7c-0.9-0.2-1.7-0.5-2.3-0.7v-2.3c1.3-5.9,2.6-11.8,4-17.6c0.6-1.5,1.2-2.9,1.9-4.2
			v-1.2c0.6-1.6,1.5-3.1,2.6-4.4C616.1,184.9,617.5,185,618.8,185.4z"/>
		<path class="st7" d="M677.3,184.4c1.6,0.3,3.3,1,4.9,2.1c0.5,1.7,0.8,3.7,0.9,5.8c-0.8,0.5-1.3,1.2-1.4,2.3
			c-0.7,0.2-1.4,0.4-2.1,0.5c0,0.5,0.1,1,0.2,1.6c-0.3-0.2-0.5-0.8-0.5-1.6h-1c-0.2-0.7-0.6-1.2-1-1.4c-0.8,0-1.5,0.1-2.1,0.3
			c-0.9,0.7-1.9,1.3-3,1.9c-1.6,1.7-3.1,3.6-4.5,5.6c-0.9,1.9-1.8,3.8-2.6,5.8c0.2,2.2,0.3,4.4,0.3,6.6c0.1,0.1,0.3,0.3,0.7,0.5
			c0.9,0,2,0.1,3.1,0.2c2.7-0.8,5.4-1.6,8-2.4c1.4-0.1,2.8-0.2,4.1-0.3c1.3-0.1,1.2-0.1-0.3,0.2c-0.1,0.2,0,0.5,0.4,0.7
			c0.4,0.2,0.9,0.5,1.5,0.9c-0.6,0.6-1.3,1.4-2.1,2.4c-0.2,0.8-0.6,1.6-1,2.4h-0.7c-0.2,0.6-0.5,1.2-0.9,1.7
			c-1.7,0.6-3.3,1.3-4.7,2.3c-2.3,0.1-4.6,0.2-6.8,0.2c-0.9-0.5-1.9-0.8-2.8-0.9c-1.4-0.7-2.6-1.5-3.5-2.3c-0.7-1.4-1.6-2.6-2.6-3.5
			c-0.2-1-0.5-1.9-0.9-2.4c0.1-2.3,0.3-4.7,0.5-7.2c0.7-2.6,1.7-5,3-7.3c1.3-2.3,2.6-4.6,4-6.8c1.3-1.2,2.6-2.3,3.9-3.5
			c1.3-1.2,2.8-2.3,4.5-3.3C674.3,185,675.8,184.6,677.3,184.4z"/>
		<path class="st7" d="M707.4,164.5c0.5,0,0.9,0.1,1.3,0.4c0.4,0.3,0.7,0.8,1,1.5c0.3,0,0.7,0.1,1,0.3c-0.1,0.2-0.3,0.4-0.5,0.5
			c-0.1,0.5,0.1,0.9,0.5,1.2c-0.2,1-0.7,1.9-1.4,2.6v1.2c-0.2,0.3-0.5,0.6-0.9,0.9c-1,3.5-2.2,6.9-3.5,10.1c-0.3,1.3-0.5,2.6-0.5,4
			c-0.9,2.3-1.7,4.8-2.3,7.3c-0.1,0.5-0.1,0.9,0.2,1.4c2.1-0.9,4.1-2,5.9-3.1c-0.1,0.2-0.1,0.5,0.2,0.9c1.3-0.5,2.7-0.9,4.2-1.4
			c0.5,0.1,1,0.1,1.5-0.1c0.5-0.2,1.1-0.3,1.8-0.4c1.6,0.9,3.1,2.1,4.4,3.5c0,1.3,0.1,2.6,0.2,4c-0.1,0.9-0.3,1.7-0.7,2.4
			c-0.2,3-0.4,6.1-0.5,9.1c0.3,0.3,0.9,0.5,1.6,0.3c1.4-1.2,2.9-2.2,4.5-3.1c0.6,0.2,1.2,0.2,1.9,0c-0.2,0.5-0.6,1-1.2,1.6v1
			c0.5,0.3,0.9,0.9,1.2,1.6c-0.2,1.3-0.6,2.6-1.2,3.8c-1.2,0.6-1.9,1.5-2.3,2.8c-1.2,0.2-2.1,0.8-2.8,1.6c-1.6-0.1-3.1-0.3-4.5-0.5
			c-1.5-0.8-3-1.7-4.4-2.6c-0.8-1.7-1.5-3.4-2.1-4.9c-0.3-2.4-0.4-4.8-0.2-7.2c0.1-0.2,0.3-0.4,0.5-0.5v-3c-0.5-0.7-1-1-1.7-1
			c-1,1-2.3,1.9-3.7,2.4c-1.3,1.4-2.7,2.9-4.4,4.5c-0.6,0.8-1.1,1.7-1.6,2.6c-0.7,3-1.3,6.1-1.7,9.3c-0.3,0.3-0.7,0.8-1,1.4
			c-0.7,0.2-1.3,0.5-1.7,0.9c-0.3-0.5-0.7-0.9-1-1.2c-1.2-0.2-2.2-0.6-3-1.2c0.2-1.2,0.2-2.3,0-3.3c0.3-0.9,0.6-1.9,0.9-3
			c-0.1-0.6-0.1-1.2,0.1-1.7c0.2-0.6,0.4-1.2,0.8-1.9c0.1-1.3,0.2-2.5,0.3-3.7c0.1-0.2,0.3-0.4,0.5-0.5c1-6.7,2.5-13.3,4.4-19.7
			c2.2-5.6,4.4-11.2,6.6-16.8C705,167.1,706.1,165.6,707.4,164.5z"/>
		<path class="st7" d="M758.9,184.6c1.9,0.3,3.7,0.9,5.6,1.6c0.6,0.6,1.2,1.3,1.9,2.3c0.7,0.9,1.4,2,2.1,3.1
			c-0.5,0.6-0.6,1.5-0.3,2.6c-1.9,2.8-3.8,5.5-5.8,8c-0.9,0.6-1.7,1.2-2.4,1.8c-0.6,0.6-1.2,1.3-1.7,2c-1.5,0.7-2.9,1.6-4,2.6
			c-2.3,1.2-4.7,2.3-7.2,3.3c0,0.7,0.4,1.3,1.2,1.7c0.8,0.5,1.7,0.8,2.7,1c1,0.2,2.1,0.2,3.2,0.1c2.1-1.2,4.4-2.2,6.8-3.1
			c1.2-1.2,2.6-2.2,4.2-3c0.8,0.3,1.7,0.5,2.6,0.3c-0.2,0.3-0.2,0.9,0.2,1.6c0.7,0,1.2,0.3,1.6,1c-0.5,0-0.8,0.2-0.9,0.7
			c0.1,0.9,0,1.9-0.3,3c-2.1,1.2-4,2.6-5.6,4.2c-2,0.7-3.8,1.6-5.4,2.6c-2.1,0.2-4.2,0.4-6.3,0.5c-2.1-0.5-4.1-1.1-6.1-1.9
			c-1.7-1.4-3.5-2.8-5.2-4.2c-1.3-1.5-2.5-2.9-3.7-4.2c-0.3-2.4-0.7-4.7-1-6.8c0.7-2.6,1.3-5.2,1.9-7.9c1-1.7,2.1-3.5,3.1-5.2h0.9
			c1.2-1,2.3-2.2,3.5-3.3c2-0.8,3.8-1.9,5.6-3.1h2.1c0.2-0.2,0.4-0.5,0.5-0.7C754.6,184.8,756.7,184.6,758.9,184.6z M752.4,192.9
			c-1.2,0.8-2.4,1.6-3.7,2.3c-1.4,2-2.6,4.1-3.7,6.5c-0.3,1.2-0.4,2.2-0.2,3.1h1c3.3-2.3,6.5-4.9,9.8-7.7c0.8-1.2,1.8-2.3,3-3.3
			c0.3-0.8,0.3-1.5,0-2.1h-2.4C755,192.2,753.7,192.6,752.4,192.9z M749.4,210c0.4,0.2,0.8,0.1,1.1-0.1c0-0.3-0.1-0.6-0.2-0.7h-1
			C748.9,209.5,748.9,209.8,749.4,210z M750.1,203.4c0.5-0.1,0.8-0.4,1-0.9c-0.1-0.5-0.4-0.6-0.9-0.3
			C749.8,202.5,749.8,202.9,750.1,203.4z"/>
		<path class="st7" d="M788.5,185.4c0.6,0.6,1.2,1.3,1.7,2.1h1.4c1.4-0.8,2.9-1.5,4.4-2.1c2.3-0.3,4.8-0.5,7.5-0.3
			c1.7,0.6,3.4,1.5,4.9,2.6c0.1,0.5,0.4,0.9,0.9,1.2c0.2,1.7,0.5,3.6,0.7,5.6c-0.3,2.6-0.8,5.1-1.2,7.5c-0.2,2.9-0.4,5.9-0.5,8.9
			c0.5,0.3,1,0.5,1.7,0.3c0.7-0.7,1.5-1,2.4-1c0.3,0.2,0.8,0.5,1.2,0.7c0.1,0.9,0.5,1.7,1,2.3c-0.7,2.1-1.6,4.3-2.6,6.5
			c-1.2,0.6-2.2,1.2-3.1,1.9c-2,0.1-3.9,0.1-5.8,0c-1.7-1.3-3.3-2.7-4.7-4.2c-0.6-0.8-1-1.7-1.2-2.6c0.6-3.6,1.2-7.1,1.9-10.5
			c0.2-4,0.6-7.7,1.2-11.3c-0.1-0.5-0.3-0.8-0.7-0.9c-0.8,0-1.6,0.1-2.3,0.2c-1.5,0.8-3,1.7-4.5,2.8c-0.8,0.8-1.6,1.7-2.4,2.6
			c-1,1.7-1.9,3.6-2.6,5.4c-1,4.5-1.8,9.3-2.3,14.1c-0.9,0.5-1.6,1.1-2.1,1.9c-1.2-0.1-2.1-0.3-2.7-0.5c-0.6-0.2-1.1-0.2-1.3,0.2
			c-0.2-0.7-0.6-1.2-1.2-1.4c0-0.7-0.1-1.3-0.2-1.7c-0.9-0.2-1.7-0.5-2.3-0.7v-2.3c1.3-5.9,2.6-11.8,4-17.6c0.6-1.5,1.2-2.9,1.9-4.2
			v-1.2c0.6-1.6,1.5-3.1,2.6-4.4C785.8,184.9,787.2,185,788.5,185.4z"/>
		<path class="st7" d="M831.8,214.6c0.8,0.7,1.5,1.7,2.1,3v2.6c-0.5,0.5-0.9,1-1.4,1.6c-0.9,0.6-1.9,1.1-2.8,1.6
			c-1-0.2-2.1-0.3-3.1-0.2c-0.2-0.7-0.6-1.2-1.2-1.6c-0.1-1.3,0.1-2.4,0.5-3.5c-0.3-0.2-0.6-0.5-0.7-0.8c-0.1-0.3-0.1-0.6,0.2-1
			c0.7-0.2,1.1-0.6,1.2-1.2c1.4-0.3,2.9-0.3,4.4,0C831,214.6,831.3,214.5,831.8,214.6z"/>
		<path class="st7" d="M869,184.4h3.7c1.3,0.7,2.6,1.6,4,2.6c0.1,0.7,0.5,1.3,1.2,1.9c0.5,2,0.9,4.1,1.4,6.3c0.1,3.1,0.2,6.5,0.2,10
			c-0.5,1.5-0.7,3.2-0.7,5.1c0.1,2.2,0.2,4.6,0.2,7.2c-0.2,0.6-0.5,1.2-0.7,1.9c-0.5,0.1-0.9,0.4-1.2,0.9c-0.8-0.3-1.7-0.4-2.6-0.2
			c-0.5-0.5-0.9-0.8-1.4-0.9c-0.3-1-0.6-2.1-0.7-3.1c-0.3,0-0.6-0.1-0.9-0.2c-0.1-0.6-0.3-1.1-0.5-1.6c0.2-5.8,0.6-11.6,1.2-17.3
			c-0.3-1.6-0.6-3.2-0.9-4.7c-0.2-0.2-0.5-0.4-0.9-0.4c-0.3-0.1-0.6,0-0.9,0.3c-1.2,1.7-2.2,3.5-3.1,5.2c-1.7,5.5-3.2,11.1-4.4,16.9
			c0,1.5-0.2,3-0.5,4.5c-0.6-0.1-0.9,0.2-1,1c-0.8-0.3-1.6-0.3-2.3,0c-0.3-0.6-0.8-1-1.4-1.2c0-0.7-0.2-1.3-0.5-1.7
			c-0.7,0-1-0.2-1-0.7c0.1-4.9,0.4-9.7,0.9-14.3c-0.3-2.1-0.7-4.1-1-6.1c-0.7,0.5-1.4,1-2.1,1.7c-0.9,1.2-1.8,2.4-2.6,3.8
			c-1.7,3.8-3,7.9-3.8,12c-0.1,1.9-0.2,3.8-0.2,5.9c-0.5,0.8-0.9,1.7-1.2,2.6c-0.8-0.2-1.5-0.5-2-0.7c-0.5-0.2-0.7-0.6-0.6-1
			c-0.5-0.6-1-0.9-1.7-1c-0.6-1-0.8-2-0.7-3c-0.3-0.2-0.6-0.3-0.7-0.3c0.3-4,0.8-7.9,1.4-11.9c0.6-4,1.4-7.9,2.4-11.7h0.5
			c-0.1-0.6-0.1-1.1,0-1.6c1.2-1.2,2.2-2.5,3.1-4c0.5,0,0.9,0,1.4,0c0.8,1.2,1.5,2.3,1.9,3.5c1.5-1,3-2.1,4.5-3.1
			c1.6-0.5,3.1-0.6,4.4-0.3c0.6,0.5,1.2,0.9,1.9,1.4c0,1.2,0.3,2.2,1,3.1c0.8-1.3,1.7-2.7,2.8-4.2
			C866.2,186.1,867.6,185.2,869,184.4z M842.3,198.5c0.1,0.1,0.3,0,0.5-0.3c0.2-1.4,0.3-2.6,0.2-3.5
			C842.4,195.8,842.2,197.1,842.3,198.5z"/>
		<path class="st7" d="M904,164.3l0.7,0.7c0.5-0.1,0.9-0.2,1.4-0.2c0.3,0.5,0.9,0.8,1.6,0.9c0.3,1.5,0.4,3.3,0.2,5.2
			c-0.3,0.6-0.6,1.2-0.7,1.9c-0.1,2.4-0.3,5-0.5,7.7c-0.2,0.2-0.4,0.5-0.5,0.7c0,0.9,0,2,0,3.1c-1.2,5.4-2.2,10.8-3,16.2
			c0.1,1.5,0,3.2-0.3,5.1c-0.3,1.9-0.8,3.8-1.4,5.9c0,0.2,0.2,0.4,0.5,0.5c2.8-2.6,5.8-4.8,9.1-6.6c0.3,0.2,0.7,0.4,1,0.5
			c-0.2,0.1-0.3,0.4-0.2,0.8c0.1,0.4,0.5,0.7,1,0.8c-0.5,1.3-0.8,2.6-1,3.8c-1.2,1-1.9,2.3-2.3,3.8c-1.3,1-2.4,2.1-3.3,3.1
			c-1.6,0.9-3.3,1.7-5.1,2.3h-1.2c-0.6,0.2-1,0.6-1.2,1.2c-0.6,0.1-1.2,0.2-1.7,0.3c-1.2-0.7-2.3-1.2-3.3-1.6
			c0.3-2.6,0.9-5.2,1.6-7.9c0.8-3.1,1.7-6.2,2.8-9.1c-0.1-0.6-0.1-1.1-0.1-1.5c0.1-0.4,0.2-0.7,0.4-0.8c0-1.2,0.1-2.3,0.3-3.4
			c0.2-1.1,0.5-2.2,1-3.2c-0.2-0.6-0.3-1.1-0.2-1.6c0.8-6.2,1.6-12.2,2.4-18.2c-0.2-2.8-0.2-4.9,0.2-6.3c0.5-1,0.7-2,0.7-3
			C903.2,165.1,903.6,164.5,904,164.3z"/>
	</g>
	<g>
		<linearGradient id="SVGID_1_" gradientUnits="userSpaceOnUse" x1="94.3228" y1="92.1929" x2="153.9382" y2="178.8159">
			<stop  offset="0" style="stop-color:#55FF7C"/>
			<stop  offset="0.4541" style="stop-color:#2AD3FF"/>
		</linearGradient>
		<path class="st8" d="M199.5,143.1c-3.2-35.7-33.2-63.7-69.8-63.7c-38.7,0-70.1,31.4-70.1,70.1c0,4,0.3,7.8,1,11.6L199.5,143.1z"/>
		<path class="st9" d="M262.6,160.2c1.9,15.2-54.2,34.9-125.4,44c-71.2,9.1-130.5,4.2-132.4-11s54.2-34.9,125.4-44
			c53.2-6.8,96.8,0.3,117.8,7.5C255.1,159.2,262.1,156.3,262.6,160.2z"/>
		<path class="st10" d="M59.7,150.8c0,0-54.7,28.9-54.7,39c0,10.2,89.6,12.4,130.8,6s129.4-23.6,127-34.9
			c-2.5-11.3-65.1-24.2-65.1-24.2s-26.6,7.6-67,12.6C92.6,154.2,59.7,150.8,59.7,150.8z"/>
		<path class="st11" d="M198.4,134.9c-6.6,5.1-34.8,10-69.6,14.6c-35.4,4.7-61.1,2.5-69.9,1.3c-1,0.8-3.1,2-3,2.7
			c0.6,5.3,33.4,5.8,73.1,1.2s71.5-11.4,70.9-16.8C199.8,137.3,199.3,135.4,198.4,134.9z"/>
		
			<ellipse transform="matrix(0.1999 -0.9798 0.9798 0.1999 -160.7448 179.5482)" class="st12" cx="29.6" cy="188.2" rx="6" ry="8.3"/>
		
			<ellipse transform="matrix(0.9999 -1.633105e-02 1.633105e-02 0.9999 -3.0779 1.3464)" class="st12" cx="80.9" cy="189.1" rx="8.3" ry="5.3"/>
		
			<ellipse transform="matrix(0.9963 -8.637036e-02 8.637036e-02 0.9963 -15.5913 12.5259)" class="st12" cx="137" cy="186.4" rx="8.3" ry="5"/>
		
			<ellipse transform="matrix(0.9963 -8.637036e-02 8.637036e-02 0.9963 -14.4624 17.556)" class="st12" cx="195.7" cy="175.9" rx="8.3" ry="5.2"/>
		
			<ellipse transform="matrix(0.9531 -0.3028 0.3028 0.9531 -37.5585 81.0639)" class="st12" cx="242.7" cy="161.7" rx="7.4" ry="4.8"/>
	</g>
</g>
</svg>
