<?xml version="1.0" encoding="utf-8"?>
<!-- Generator: Adobe Illustrator 22.0.0, SVG Export Plug-In . SVG Version: 6.00 Build 0)  -->
<svg version="1.1" xmlns="http://www.w3.org/2000/svg" xmlns:xlink="http://www.w3.org/1999/xlink" x="0px" y="0px"
	 viewBox="0 0 949 256" style="enable-background:new 0 0 949 256;" xml:space="preserve">
<style type="text/css">
	.st0{display:none;}
	.st1{display:inline;fill:#A4C7FF;}
	.st2{display:inline;}
	.st3{fill:#333333;}
	.st4{fill:#6A3AEF;}
	.st5{fill:#FFCB4F;enable-background:new    ;}
	.st6{opacity:0.76;fill:url(#SVGID_1_);enable-background:new    ;}
	.st7{fill:#4C2B9E;enable-background:new    ;}
	.st8{fill:#9422FE;enable-background:new    ;}
	.st9{fill:#4441EF;}
	.st10{fill:#FBDE98;enable-background:new    ;}
</style>
<g id="图层_1" class="st0">
	<path class="st1" d="M126.9,67.1l110.9,64l-110.9,64L16,131.1L126.9,67.1z"/>
	<g transform="translate(300, 55.695), scale(0.7)" class="st2">
		<path vector-effect="non-scaling-stroke" class="st3" d="M613.9,10.2v127c0,0.9,0,1.9,0.1,2.8c0.4,8.5,2.6,16.3,6.6,23.3
			c0.4,0.6,0.7,1.2,1.1,1.8c0.9,1.4,1.8,2.8,2.9,4.1c4.5,5.8,10.3,10.6,17.2,14.3c0.6,0.3,1.1,0.6,1.7,0.9c1.6,0.8,3.2,1.5,4.9,2.2
			c7.4,2.9,15.6,4.5,24.5,4.7c0.8,0,1.7,0,2.5,0c0.9,0,1.9,0,2.8,0c9.8-0.3,18.6-2.2,26.6-5.7c0.8-0.4,1.7-0.8,2.5-1.2
			c9.3-4.6,16.6-11,21.9-19.2c0.8-1.2,1.5-2.5,2.2-3.8c3.5-6.7,5.4-14.2,5.7-22.3c0-0.6,0-1.2,0-1.8v-127c0-0.3,0-0.6,0-0.9
			c0.2-2,0.9-3.5,2.1-4.7c0.8-0.7,1.7-1.3,2.7-1.6c0.8-0.3,1.8-0.4,2.8-0.4c1.5,0,2.8,0.3,3.9,0.8c0.6,0.3,1.2,0.7,1.7,1.2
			c1.2,1.2,1.9,2.9,2,4.9c0,0.2,0,0.5,0,0.7v127c0,13.1-3.1,24.7-9.2,35c-0.2,0.3-0.4,0.7-0.6,1c-6.6,10.5-15.7,18.7-27.4,24.6
			c-10.8,5.4-23,8.4-36.5,8.8c-1.1,0-2.2,0-3.3,0c-14.8,0-28.1-2.9-39.8-8.8c-0.9-0.5-1.8-0.9-2.7-1.4c-9.2-5.1-16.7-11.8-22.5-20
			c-0.7-1-1.4-2.1-2.1-3.2c-6.5-10.5-9.7-22.5-9.7-36v-127c0-0.3,0-0.6,0-0.9c0.2-2,0.9-3.5,2.1-4.7c0.8-0.7,1.7-1.3,2.7-1.6
			c0.8-0.3,1.8-0.4,2.8-0.4c1.5,0,2.8,0.3,3.9,0.8c0.6,0.3,1.2,0.7,1.7,1.2c1.2,1.2,1.9,2.9,2,4.9C613.9,9.7,613.9,10,613.9,10.2z
			 M895.5,9c-0.2-0.1-0.4-0.2-0.6-0.3C884.6,2.9,873.4,0,861.2,0c-0.8,0-1.6,0-2.4,0c-11,0.3-20.7,2.3-29.2,6.2
			c-0.5,0.2-1,0.5-1.5,0.7c-8.4,4.1-15,9.8-19.8,17c-5,7.6-7.6,16.3-7.6,26.2c0,13,4.8,24.2,14.4,33.5c0.6,0.6,1.2,1.2,1.8,1.7
			c0.9,0.8,1.7,1.5,2.7,2.2c10,7.9,23.2,13.3,39.4,15.9c0.9,0.1,1.8,0.3,2.6,0.4c14.9,2,26.5,6.4,34.7,13c0.7,0.6,1.4,1.1,2,1.7
			c0.3,0.3,0.6,0.5,0.8,0.8c7.7,7.5,11.6,16.8,11.6,28c0,13.5-4.2,23.9-12.7,31.2c-1.4,1.2-2.9,2.3-4.5,3.3
			c-7.5,4.8-16.9,7.4-28.2,7.6c-0.7,0-1.4,0-2,0c-0.7,0-1.5,0-2.2,0c-10.5-0.2-19.7-2.1-27.6-5.6c-1-0.5-2.1-0.9-3.1-1.5
			c-0.5-0.3-1-0.5-1.5-0.8c-7.2-4-12.9-9.2-17.1-15.7c-0.7-1.1-1.3-2.2-2-3.3c-0.1-0.1-0.1-0.2-0.2-0.4c-1.4-2.7-3.5-4.2-6.2-4.5
			c-0.3,0-0.7-0.1-1-0.1c-0.1,0-0.2,0-0.3,0c-2.2,0.1-4,0.7-5.4,2c-0.2,0.2-0.5,0.5-0.7,0.7c-0.8,1-1.3,2.1-1.4,3.4
			c0,0.3-0.1,0.7-0.1,1c0,0.3,0,0.7,0.1,1c0.1,0.4,0.2,0.8,0.3,1.1c0.1,0.3,0.2,0.6,0.4,0.9c0.2,0.5,0.5,0.9,0.7,1.4
			c5.3,9.9,13,17.9,23,24.1c0.9,0.5,1.8,1.1,2.7,1.6c11.8,6.6,25.7,9.9,41.7,9.9c10.7,0,20.3-1.7,28.8-5.1c1.4-0.6,2.7-1.2,4.1-1.8
			c9.5-4.6,16.8-11.3,22-20c0.8-1.3,1.5-2.6,2.1-4c3.8-7.8,5.7-16.7,5.7-26.8c0-0.7,0-1.4,0-2.1c-0.4-13.5-4.6-24.7-12.6-33.6
			c-0.7-0.8-1.5-1.6-2.2-2.3c-9.9-9.6-25.6-16.3-47.1-19.8c-0.6-0.1-1.2-0.2-1.8-0.3c-15.5-2.8-27-7.3-34.5-13.5
			c-0.3-0.3-0.6-0.5-0.9-0.8c-7.2-6.3-10.8-14.1-10.8-23.3c0,0,0-0.1,0-0.1c0-11.4,4-20.2,11.9-26.6c0.3-0.2,0.6-0.5,0.9-0.7
			c7.5-5.7,17.6-8.6,30.3-8.9c0.7,0,1.3,0,2,0c0.3,0,0.6,0,0.9,0c17.8,0.2,31.6,7,41.5,20.2c0.5,0.7,1,1.3,1.4,2
			c1.5,2.3,3.5,3.5,6.1,3.8c0.3,0,0.7,0.1,1.1,0.1c0.2,0,0.4,0,0.6,0c1.1,0,1.9-0.2,2.5-0.5c0,0,0.1,0,0.1-0.1
			c0.7-0.3,1.3-0.8,1.8-1.2c0.5-0.4,0.9-0.9,1.3-1.4c0.5-0.8,0.9-1.6,1-2.5c0.1-0.4,0.1-0.8,0.1-1.2c0-1.5-0.3-2.9-1-4.1
			C913.6,22.1,905.9,14.9,895.5,9z M160.3,0.1C159,0,157.7,0,156.4,0c-16.6,0-31.9,3.8-46,11.5c-1.5,0.8-2.9,1.6-4.3,2.5
			c-0.5,0.3-1,0.6-1.6,1c-13.2,8.4-24,19.2-32.4,32.6c-0.8,1.3-1.6,2.6-2.4,4c-9,15.7-13.4,32.7-13.4,50.9
			c0,16.6,3.7,32.2,11.2,46.8c0.7,1.4,1.5,2.9,2.3,4.3c9,15.8,21.2,28.3,36.6,37.6c0.5,0.3,1.1,0.6,1.6,0.9c14.9,8.7,31,13,48.3,13
			c27.3,0,48.3-7.3,63-22c1-1.2,1.6-2.6,1.8-4.4c0-0.3,0-0.6,0-1c0-1.8-0.6-3.4-1.7-4.8c-0.2-0.3-0.5-0.6-0.8-0.8
			c0,0-0.1-0.1-0.1-0.1c-1.6-1.5-3.4-2.2-5.4-2.2c-0.6,0-1.1,0.1-1.7,0.2c-0.4,0.1-0.8,0.3-1.3,0.5c-0.3,0.2-0.6,0.3-0.9,0.5
			c-15.2,12.5-32.9,18.7-53,18.7c-13.8,0-26.7-3.2-38.7-9.7c-1.2-0.7-2.5-1.4-3.7-2.1c-13.1-7.9-23.4-18.5-31-31.9
			c-6.9-12.2-10.7-25.3-11.3-39.4c-0.1-1.4-0.1-2.8-0.1-4.2c0-15.2,3.8-29.5,11.5-42.9c0-0.1,0.1-0.2,0.2-0.3
			c7.7-13.3,18-23.9,31-31.9c0.9-0.6,1.9-1.1,2.9-1.7c11-6.2,22.7-9.6,35.1-10.2c1.4-0.1,2.8-0.1,4.2-0.1c0.1,0,0.3,0,0.4,0
			c15.6,0.1,28.9,3.2,40,9.5c4,2.2,7.7,4.9,11,7.9c0.2,0.1,0.3,0.3,0.5,0.4c2.2,1.8,4.2,2.7,5.9,2.7c0.2,0,0.4,0,0.6,0
			c1.6-0.1,3-0.6,4.1-1.5c0.3-0.3,0.6-0.6,0.9-0.9c0.1-0.1,0.2-0.2,0.2-0.3c1.2-1.6,1.8-3.3,1.8-5.2c0-0.2,0-0.4,0-0.6
			c-0.1-1.9-0.9-3.4-2.3-4.5c0,0-0.1-0.1-0.1-0.1C202.3,8.4,182.6,0.9,160.3,0.1z M551.2,198.4l-47.1-75.3h-4.6h-41.2v71.7
			c0,2.2-0.7,4.1-2,5.5c-1.3,1.4-3.1,2.1-5.3,2.2c-0.1,0-0.2,0-0.3,0c-2.1,0-3.8-0.6-5.2-1.9c-0.1-0.1-0.2-0.2-0.3-0.3
			c-0.3-0.3-0.6-0.7-0.9-1c-0.9-1.2-1.3-2.7-1.3-4.4c0,0,0,0,0,0V10.2c0-0.3,0-0.6,0-0.9c0.2-2,0.9-3.5,2.1-4.7
			c0.8-0.7,1.7-1.3,2.7-1.6c0.8-0.3,1.8-0.4,2.8-0.4h48.9c12.3,0,23.3,2.6,33,7.7c9,4.7,16.1,11.2,21.5,19.4
			c0.4,0.7,0.9,1.4,1.3,2.1c2.1,3.6,3.9,7.4,5.2,11.4c2,6.2,3,12.9,3,20.1c0,12.6-3.2,23.7-9.5,33.2c-0.7,1-1.4,2-2.1,3
			c-0.8,1.1-1.7,2.1-2.6,3.2c-7.1,8-16,13.7-27,17.2c-0.6,0.2-1.2,0.4-1.8,0.5l44,70.4c1.4,2.4,2,4.4,2,5.9c0,0.3,0,0.6,0,0.8
			c-0.2,1.2-0.6,2.2-1.4,3c-0.2,0.2-0.4,0.4-0.7,0.6c-0.3,0.2-0.5,0.3-0.8,0.5c-1.4,0.7-3.2,1.1-5.5,1.1c-1.6,0-2.8-0.3-3.8-0.8
			c-0.1-0.1-0.2-0.1-0.3-0.2c-0.9-0.6-1.7-1.4-2.5-2.5C551.4,198.8,551.3,198.6,551.2,198.4z M399.1,197.6l-18.9-45.3H276L257,197.6
			c-1.1,3.1-3.3,4.7-6.6,4.9c-0.2,0-0.4,0-0.5,0c-0.3,0-0.6,0-0.9,0c-1.9-0.2-3.4-0.9-4.5-2.1c-0.1-0.1-0.1-0.1-0.2-0.2
			c-0.3-0.3-0.5-0.6-0.7-1c-0.9-1.3-1.3-2.8-1.3-4.4c0-0.4,0-0.9,0.1-1.3c0.1-0.7,0.3-1.4,0.7-2L320.5,7.9c0.1-0.3,0.2-0.5,0.3-0.8
			c1.3-2.8,3.4-4.3,6.3-4.5c0.3,0,0.5,0,0.8,0c0.3,0,0.7,0,1,0.1c2.9,0.3,5,2.1,6.4,5.3l77.8,183.6c0.5,1,0.8,2.1,0.8,3.3
			c0,0.4,0,0.9-0.1,1.3c-0.3,1.5-1,2.9-2.2,4.1c-0.2,0.2-0.5,0.5-0.8,0.7c-1.2,0.9-2.5,1.5-4,1.6c-0.2,0-0.4,0-0.6,0
			c-0.3,0-0.6,0-0.9,0C402.4,202.2,400.3,200.6,399.1,197.6z M15.4,10.2v184.6c0,2.1-0.6,3.8-1.9,5.2c-0.1,0.1-0.2,0.2-0.3,0.3
			c-0.3,0.3-0.7,0.6-1,0.9c-1.2,0.9-2.7,1.3-4.4,1.3c0,0,0,0,0,0c-2.1,0-3.8-0.6-5.2-1.9c-0.1-0.1-0.2-0.2-0.3-0.3
			c-0.3-0.3-0.6-0.7-0.9-1C0.4,198,0,196.6,0,194.9c0,0,0,0,0,0V10.2C0,8.2,0.6,6.4,1.9,5C2,4.9,2.1,4.8,2.2,4.7
			c0.3-0.3,0.7-0.6,1-0.9C4.5,3,5.9,2.6,7.6,2.6c0,0,0,0,0,0c2.1,0,3.8,0.6,5.2,1.9c0.1,0.1,0.2,0.2,0.3,0.3c0.3,0.3,0.6,0.7,0.9,1
			C14.9,7,15.4,8.5,15.4,10.2C15.4,10.2,15.4,10.2,15.4,10.2z M281.9,138.5h92.4L327.9,27.9L281.9,138.5z M458.2,107.8h41.2
			c7.3,0,14-1.1,20.1-3.4c1.7-0.6,3.4-1.4,5-2.2c0.9-0.4,1.7-0.9,2.5-1.4c5.1-3,9.4-6.9,12.8-11.6c0.7-0.9,1.3-1.9,1.9-2.9
			c3.7-6.1,5.8-12.9,6.2-20.4c0-0.9,0.1-1.8,0.1-2.7c0-8.7-2.1-16.5-6.3-23.4s-9.9-12.3-17.3-16.1c-7.3-3.8-15.7-5.8-25.1-5.8h-41.2
			V107.8z"/>
	</g>
</g>
<g id="图层_2">
	<g>
		<path class="st4" d="M305.3,63.9h12.9c1.7,0.7,3.5,1.3,5.4,1.8c1.9,1.5,3.7,3.1,5.4,4.6c0.3,1,0.9,2.1,1.8,3.3
			c-0.2,1.7-0.7,3.3-1.5,4.9c-2.7,2.7-5.7,5.5-8.8,8.2v1c1.2,1,2.6,2,4.1,2.8c1,1.2,2.1,2.5,3.1,3.9c0.5,1.4,1.1,2.9,1.8,4.6
			c0,2.4-0.3,4.7-0.8,7c-1.7,1.7-3.1,3.7-4.1,5.9c-2.2,1.7-4.6,3.3-7,4.6c-1.7,0-3.3,0.2-4.9,0.5c-4.6-1.7-8.8-3.9-12.4-6.7
			c-0.2-0.9,0-1.5,0.5-2.1c-0.3-0.7-0.7-1.2-1-1.5c0.7-0.2,1.5-0.1,2.3,0.3c3.1-2.1,6.4-3.7,10-4.9c1.7-1.7,3.5-3.2,5.4-4.4
			c0-0.7,0.1-1.2,0.3-1.5c-2.6-0.9-5.2-1.5-7.7-1.8v-0.8c-1.4-1.2-2.7-2.2-4.1-3.1c0-1.4-0.5-2.4-1.5-3.1c0.2-0.5,0.6-1.1,1.3-1.8
			c-0.5-0.7-0.7-1.3-0.5-1.8c2.2-1.7,4.5-3.5,6.7-5.4c1.2-1.7,2.6-3.3,4.1-4.6c0-0.5-0.1-0.9-0.3-1h-7.7c-2.7,0.5-5.5,0.9-8.2,1.3
			c-0.5,0.2-0.6,0.5-0.4,0.9c0.3,0.4,0.6,1,1.2,1.7c0.2,1.5,0.2,3.3,0,5.2c-0.7,3.4-1.4,6.9-2.1,10.3c-0.3,13.7-0.1,27.6,0.8,41.5
			c-1.4,1.4-2.5,2.7-3.3,4.1c-0.5-0.5-0.9-0.4-1,0.3c-1.4-1.7-3.1-2.9-5.2-3.6c-0.7-1.4-1.4-2.7-2.1-4.1c-0.2-7.7-0.4-15.4-0.6-22.9
			c-0.3-7.6,0-14.9,0.6-22.2c0.2-1.2,0.6-2.2,1.3-3.1c-0.3-0.7-0.5-1.3-0.5-1.8c0.5-2.2,1.4-4.3,2.6-6.2c-0.7-0.9-1.3-0.9-1.8-0.3
			c-1-0.9-1.7-1.8-2.1-2.8c0.7-0.7,1.4-1.3,2.1-1.8c0.2-0.7,0.3-1.3,0.3-1.8c0.9-0.2,1.6-0.6,2.3-1.3
			C296.3,65.7,300.8,64.9,305.3,63.9z M335.2,48.4c8.9,1.2,18.1,2.2,27.6,3.1l0.5-0.5c1.7,0,3.3,0.4,4.9,1.3
			c4.5-0.2,8.8,0.1,13.1,0.8c1.5,1.4,3,3,4.4,4.9v1.3c-0.9,1.4-2,2.7-3.3,3.9c-1-0.2-1.9,0.1-2.6,0.8c-2.6,0.2-5.2,0.2-7.7,0
			c-0.9-0.7-1.6-1-2.2-1c-0.6,0-0.9,0.3-0.9,0.8c0.9,0.7,1.9,1.5,3.1,2.3c2.1,3.8,3.9,7.8,5.7,12.1c0.9,3.6,1.5,7.3,2.1,11.1
			c0.2,6.7,0,13.2-0.5,19.6c-1.4,3.4-2.4,7-3.1,10.8c-1,1.9-2,3.8-2.8,5.7c-1.5,1.4-2.8,3-3.9,4.9c-2.6,2.2-5.1,4.3-7.5,6.2
			c-4,1.7-7.8,3.7-11.6,5.9c-4.3,1.4-8.7,2.4-13.1,3.1c-4.1-1.2-8.1-2.7-11.8-4.4c0-0.5-0.1-0.9-0.3-1.3c-1,0-1.9-0.2-2.6-0.5
			c0-1.2-0.4-2-1.3-2.3l0.8-0.8c0.9-0.2,1.7-0.1,2.6,0.3c1.2-0.7,2.1-1.3,2.8-1.8c-2.4,0-4.8,0-7.2,0c-0.5-0.5-0.4-0.9,0.3-1
			c3.1,0.3,6.4,0.3,9.8-0.3c-0.3,0.3-0.8,0.6-1.3,0.8c0.3,0.5,1.1,0.7,2.3,0.5c7.2-2.4,14.2-5.2,20.9-8.5c2.4-2.1,4.8-4,7.2-5.9
			c0-1,0-2.1,0-3.1c1.2-2.4,2.4-4.7,3.6-7c0.7-3.6,1.5-7.1,2.3-10.6c-0.2-0.7-0.3-1.3-0.5-1.8c-0.2-0.5-0.1-0.9,0.3-1.3
			c-0.3-0.9-0.9-1.4-1.5-1.5c-0.9,0.5-1.2,1.1-1,1.7c0.2,0.6,0.5,1.1,1,1.4c0,1-0.3,2-0.8,2.8c-0.3-0.7-0.9-1-1.7-1
			c-0.8,0-1,0.3-0.6,1c0.3,0.7,0.9,0.9,1.8,0.5c0,0.7-0.2,1.3-0.5,1.8c-3.6,4.8-7.2,9.6-10.8,14.4c-1.5,1-3.2,2-4.9,2.8h-4.4
			c-0.9-0.5-1.5-1-2.1-1.5c-1-0.2-2-0.3-2.8-0.3c-1.9-2.6-3.7-5.3-5.4-8.2c-0.2-3.6-0.3-7.1-0.5-10.6c0.2-2.1,0.4-3.9,0.8-5.4
			c1.5-3.6,2.8-7.2,3.9-10.8c0.7-1.2,1.4-2.3,2.1-3.3c1.5-2.2,3.4-3.9,5.7-4.9c0.5,0.3,1.3,0.6,2.3,0.8c1,1,2.1,2.2,3.3,3.6
			c4.8,1.5,9.4,3.5,13.9,5.9c0.5,1,1.2,2,2.1,2.8l0.5-0.5c-0.3-4.8-1-9.3-2.1-13.4c-0.7-0.9-1.4-1.5-2.1-2.1c0-0.9-0.1-1.6-0.3-2.3
			c-0.7-0.5-1.4-0.8-2.1-0.8c-0.2-1.4-0.7-2.3-1.5-2.8c-0.2-0.9,0-1.5,0.4-1.8c0.4-0.3,1-0.7,1.7-1c0-0.5-0.2-0.9-0.5-1
			c-6.5-0.5-12.8-1.4-18.8-2.6c-3.6,0-7-0.2-10.3-0.5c-3.1,0.2-6.2,0.5-9.3,1c-2.2-1-4.3-2.5-6.2-4.4c-0.9-1.2-1.4-2.4-1.5-3.6
			c0.7-0.7,1.4-1.2,2.1-1.5c-0.2-0.7-0.1-1.3,0.3-1.8c1,0,1.9,0,2.6,0c0.7,0,1.3-0.2,1.8-0.5c3.9-0.5,7.8-0.3,11.6,0.5
			C332.4,48.7,333.8,48.4,335.2,48.4z M345.2,90.9c-1.7,3.1-3.1,6.4-4.1,10c-0.2,2.6-0.1,5,0.3,7.2c2.1-0.9,4-2.1,5.9-3.6
			c0.9-1.4,1.8-2.5,2.8-3.3c1.5-2.6,2.9-5.2,4.1-8c-1.9-1.4-3.9-2.4-5.9-3.1C347.1,90.1,346.1,90.4,345.2,90.9z M357.6,106.9
			c0.3,0.2,0.7,0.2,1,0c-0.2-1-0.7-1.8-1.5-2.3C356.7,105.3,356.9,106,357.6,106.9z M359.1,97.6c0.3,0.9,1.1,1.3,2.3,1.3
			c0.3-0.3,0.5-0.8,0.5-1.3c-0.5-0.5-0.9-0.9-1-1.3C360.2,96.5,359.6,96.9,359.1,97.6z"/>
		<path class="st4" d="M480.7,49.7c0.3,1.5,1,3,2.1,4.4c0.5-0.2,1.1-0.5,1.8-1v-1c3.3-0.5,6.6-0.9,10-1c2.4,0.5,4.7,1.2,7,2.1
			c2.2,2.4,4.5,4.9,6.7,7.5c0.7,2.2,0.9,5,0.8,8.2c-1.4,2.7-2.6,5.6-3.6,8.5c-4.1,5-8.4,10-12.9,15.2c-4.1,2.4-8.2,4.6-12.4,6.4
			h-5.7c-2.9-1.2-5.7-2.5-8.2-3.9c-1.9-1.9-3.3-3.9-4.4-5.9c-0.2-1.5-0.5-3-1-4.4c-4.1,0.3-8.1,1.1-11.9,2.3
			c-0.7,0.2-1.1,0.6-1.3,1.3c-0.5,2.9-0.4,5.6,0.3,8c0.5,0,1.1-0.1,1.8-0.3c1.9,0.7,3.9,1.5,6.2,2.3c2.2,2.2,4.5,4.6,7,7
			c-0.3,1.4-1,2.7-2.1,3.9c-2.4-0.2-4.7-0.4-7-0.8c-2.1-1.4-4-2.7-5.7-4.1c-0.7-0.2-1.1,0.1-1.3,0.8c0.5,10,0.9,19.8,1.3,29.4
			c-0.7,0.9-0.9,2-0.8,3.3c-1.4,1.4-2.7,2.9-3.9,4.6H439c-0.7-0.5-1.1-1-1.3-1.5c-0.7-6-1.5-11.7-2.3-17c-0.3-4.3-0.4-8.6-0.3-12.9
			l-0.8-0.8c-0.7-0.2-1.1,0.1-1.3,0.8c-1.9,4-4,7.7-6.2,11.3c-2.2,0.9-4.4,1.3-6.4,1.3c-0.3-0.9-0.9-1.4-1.5-1.5
			c-0.2-2.4-0.1-4.6,0.3-6.7c1.2-3.3,2.6-6.4,4.1-9.3c2.2-3.9,4.6-7.7,7.2-11.3c0.5,0,0.9-0.3,1-0.9c0.2-0.6,0.1-0.9-0.3-0.9
			c-2.6,1-5.1,2.2-7.5,3.6c-2.7-0.3-5.4-0.6-8-0.8c-0.5-0.5-0.7-0.9-0.6-1.3c0.1-0.3,0.2-0.7,0.4-1c-0.9-0.5-1.3-1.2-1.3-2.1
			c0.7-0.3,1.5-0.5,2.6-0.5c1.7-1.2,3.5-2.3,5.4-3.3c4.1-1.5,8.3-2.9,12.6-4.1c0.2-0.9,0.5-1.5,1-2.1c0-3.9,0-7.6,0-10.8
			c-2.7,0.5-5.3,1.3-7.7,2.3c-1.5,0.2-3,0.3-4.4,0.3c-0.5-0.7-1-1-1.5-1s-0.8,0.3-0.8,0.8c-1.2-0.5-2.2-0.5-3.1,0
			c-1.2-1.2-2-2.4-2.3-3.6c1.7-1.4,3.7-2.7,5.9-3.9c10-2.4,20.1-4.5,30.4-6.2c0.9,0.3,1.8,0.8,2.8,1.3c0,0.9,0.3,1.6,1,2.3
			c-0.7,1-1.5,2.1-2.6,3.1c-3.8,1.4-7.6,2.6-11.6,3.6c2.1,1,3.9,2.4,5.7,4.1c-0.2,1.2-0.2,2.6,0,4.1c0.2,0.3,0.5,0.8,1,1.3
			c3.9-0.9,8-1.5,12.1-2.1c0.5-0.3,1.1-0.8,1.8-1.3c0.7-2.4,1.5-4.7,2.3-7c3.3-7.2,7-13.8,11.1-19.8
			C477.6,48.6,479.1,48.8,480.7,49.7z M496.4,96.8c1.9-0.2,3.9-0.1,5.9,0.3c0.9,0.2,1.8,0.6,2.8,1.3c0.3,0.9,0.8,1.7,1.3,2.6
			l-2.1,2.1c-4.1,0.2-7.8,0.8-11.1,1.8c-0.9,0.7-1.4,1.5-1.5,2.6v2.3c0.2,0.3,0.5,0.5,1,0.5c1.7-1.2,3.6-2.1,5.7-2.6
			c1.2,1,2.4,2.1,3.6,3.3c0,1.4-0.6,2.5-1.8,3.3c-3.1,1.5-6.2,3.1-9.3,4.6c-1.2,4.3-2,8.8-2.3,13.7c-0.7,0.7-1.1,1.5-1.3,2.6
			l0.5,0.5c10.8-1,22-1.7,33.5-2.1c0.5,1,0.4,2.1-0.3,3.2c-0.7,1.1-1.4,2.2-2.1,3.2c-1.9,0.5-3.6,1.1-5.2,1.8
			c-7.7,0.3-15.1,1.1-22.2,2.3c-9.3,0.3-18.5,0.2-27.6-0.5c-2.7-1.4-5.2-3-7.5-4.9c-0.2-0.7-0.1-1.3,0.3-1.8
			c0.3-0.5,0.9-0.9,1.5-1.3c3.4-0.3,7.1-0.7,11.1-1c2.7,0.7,5.7,1,8.8,1l0.5-0.5c-0.7-4.5-1.1-8.8-1.3-12.9c-4.8,0.2-9.6,0.2-14.4,0
			c-0.5-0.9-0.4-1.5,0.3-2.1c2.4-1.5,4.9-2.9,7.5-4.1c2.6-0.7,5.2-1.4,7.7-2.1c-0.2-1.2-0.1-2.3,0.3-3.3c-1-0.7-2-0.8-3-0.3
			c-0.9,0.5-1.8,0.9-2.4,1.3c-3.4-0.2-6.5-0.7-9.3-1.5c-0.7-0.5-1-1-1-1.5l1-1c-0.3-0.5-0.4-1-0.3-1.5c8.1-2.7,16.3-5.5,24.7-8.2
			C491.3,97.5,493.8,97.2,496.4,96.8z M481,59.2c-1.7,1.9-3,4-3.9,6.2c-0.3,1.4-0.6,2.8-0.8,4.4c-1.2,2.4-2.3,4.8-3.3,7.2
			c-0.2,2.1-0.6,4-1.3,5.9v7.5c0.9,1,2.1,1.5,3.6,1.5c1.7-0.9,3.5-1.6,5.4-2.3c2.4-2.4,4.9-4.5,7.5-6.4c2.2-2.9,4.6-5.8,7.2-8.5
			c1.2-2.6,2.6-5,4.1-7.2v-1.5c-1-1.4-2-2.7-2.8-3.9c-1.9-1.5-3.8-2.8-5.7-3.9C487.4,58.2,484,58.5,481,59.2z"/>
		<path class="st4" d="M572.9,77.8c0.5,0.3,1.1,0.9,1.8,1.8c2.2-1.2,4.8-1.9,7.7-2.1c1,0.2,2.1,0.3,3.3,0.5c0.9,0.9,1.9,1.5,3.1,1.8
			c3.3,6.7,6.8,13.6,10.6,20.6c-0.2,1-0.3,2.1-0.3,3.3c-1.4,1.5-2.3,3.3-2.8,5.4c-4.3,5.3-8.6,10.7-12.9,16.2
			c-2.4,2.1-4.7,4.1-7,6.2c-1.4,0.5-2.7,1.1-3.9,1.8c-2.4,0.2-4.6,0.4-6.7,0.8c-1.2-0.3-2.3-0.6-3.3-0.8l-1.3-1.3h-1.5
			c-1-1.2-1.9-2.4-2.6-3.6c-1.2-3.6-2.1-7.3-2.6-11.1c0.5-1.7,0.5-3.3,0-4.9c0.5-1.4,0.9-2.6,1-3.6c0.2-1-0.2-1.6-1-1.8
			c-0.2-1.2-0.3-2.1-0.3-2.8c0.9,0.2,1.7-0.2,2.6-1c2.2-8.6,5.1-17,8.5-25.2C568,77.9,570.5,77.8,572.9,77.8z M594.8,62.3
			c0.7,0.5,1.4,1.3,2.1,2.3c0.2-0.2,0.5-0.3,1-0.3c0.7,1.4,0.9,3,0.5,4.9c-0.7,0.3-1.1,0.9-1.3,1.5c-6.9,1.7-13.7,3.4-20.6,5.2
			c-4.3,0-8.4,0.2-12.4,0.5c-1.7-0.3-3.3-0.8-4.9-1.3c-0.5,0.3-0.9,0.8-1,1.3c-0.7-0.3-1-0.8-1-1.3c-0.5,0.5-1.1,0.8-1.8,0.8
			c-0.2-1-0.4-2-0.8-2.8c1.5-1.5,3.2-3.2,4.9-4.9c1.2-0.3,2.3-0.9,3.3-1.5c4.3-0.2,8.6-0.4,12.9-0.8c3.9-1.4,8.1-2.6,12.4-3.6
			C590.3,62.2,592.6,62.2,594.8,62.3z M576.8,110c-0.5-0.2-1-0.3-1.4-0.3c-0.4,0-0.7,0.3-0.9,0.8c-2.2,0.5-4.4,0.9-6.4,1
			c-0.7,1.9-1.4,3.6-2.1,5.2v5.7c0.2,0.5,0.5,0.9,1,1.3c2.1-1.4,3.9-2.7,5.7-4.1c2.7-3.3,5.6-6.6,8.5-10c0.5-0.3,1-0.6,1.5-0.8
			c0-0.7-0.2-1.2-0.5-1.5C580.3,107.8,578.5,108.8,576.8,110z M572.9,91.2c-0.9,2.6-1.4,5.2-1.5,7.7c1.5-0.2,3.4-0.3,5.7-0.3
			c1-0.9,2.1-1.6,3.3-2.3c-0.5-2.1-1.1-3.9-1.8-5.7c0-0.9,0.3-1.5,1-1.8c-0.3-0.7-0.9-0.9-1.5-0.8C576.3,89.1,574.6,90.1,572.9,91.2
			z M576.8,82.7c1.2,0.2,1.9-0.1,2.1-0.8c-0.7-0.3-1.3-0.5-1.8-0.5C576.3,81.7,576.3,82.2,576.8,82.7z M577.8,84.2
			c0.3,0.3,0.8,0.5,1.3,0.4c0.5-0.1,0.9-0.3,1-0.6c-0.5-0.5-1.1-0.8-1.8-0.8C577.6,83.5,577.5,83.9,577.8,84.2z M580.4,95.3
			c0.5,0.3,1,0.4,1.5,0.3c0.5-0.2,0.8-0.4,0.8-0.8c-0.9-0.7-1.5-1.3-1.8-1.8c0.9-0.7,1.2-1.4,1-2.1c-0.5,0-0.8,0.3-0.8,0.8
			c-0.3-0.5-0.7-0.9-1-1C580.1,92.2,580.2,93.8,580.4,95.3z M580.6,81.1c-0.3,0.7-0.3,1.4,0,2.1c0.2,0,0.5,0.2,1,0.5
			c0.3-0.9,0.5-1.7,0.5-2.6C581.5,80.4,581,80.4,580.6,81.1z M619.3,59c1.2,1.2,2.3,2.5,3.3,3.9c-0.3,1-0.3,2.1,0,3.1
			c-0.9,1.2-2,2.1-3.3,2.8c-1.9,2.7-3.7,5.7-5.4,8.8c0.9,0.9,2.1,1.5,3.6,1.8c1.5,0.3,3.2,0.6,4.9,0.8c3.8,1,7.6,2.3,11.3,3.9
			c1.4,1,2.7,2.2,3.9,3.6c1.2,1.4,2.6,2.9,4.1,4.6c1.2,2.7,2.4,5.6,3.6,8.5c0.2,2.2,0,4.6-0.5,7c-1.5,3.4-3.3,6.8-5.4,10
			c-2.2,2.4-4.5,4.8-6.7,7.2c-2.9,2.7-6,5.2-9.3,7.2l-0.5-0.5c-1.4,0.5-2.7,0.9-3.9,1.3h-6.7c-0.5-0.5-1-0.8-1.5-0.8
			c0.2-0.5,0.3-1,0.5-1.5l-0.8-0.8c-1.2,0-2.2,0-3.1,0c-0.2-0.2-0.1-0.5,0.3-1c-1-0.7-2.1-1.1-3.1-1.3c-0.2-0.5-0.1-0.9,0.3-1.3
			c-1.2-0.9-2.2-1.5-3.1-2.1c0-0.3,0.3-0.5,1-0.5c0.7,0,1.4,0.1,2.1,0.4c0.7,0.3,1.2,0.1,1.5-0.4h4.1c2.6-1.5,5.2-3,8-4.4
			c1.2-1.5,2.7-2.8,4.4-3.9c1.5-2.4,3.3-4.7,5.4-7c1.2-2.2,2.4-4.5,3.6-6.7c0.2-1.4,0.3-2.7,0.3-4.1c-0.7-1.4-1.3-2.7-1.8-3.9
			c-1.4-0.9-2.8-1.7-4.4-2.6c-3.6-0.9-7-1.7-10.2-2.4c-3.2-0.8-6-2-8.4-3.7c-1.5-2.7-2.9-5.5-4.1-8.2c-0.2-2.1-0.3-4-0.3-5.9
			c0.5,0,1-0.2,1.5-0.5c0.9-1.2,1.1-2.3,0.8-3.3c1.5-1.4,3.2-2.7,4.9-4.1c-0.2-0.9,0.2-1.5,1-1.9c0.9-0.4,1.9-1,3.1-1.7
			C615.9,58.9,617.6,58.8,619.3,59z M610,93.2c1.4,0.2,2.7,0.4,4.1,0.8c0.9,0.7,1.9,1.5,3.1,2.3c0.3,1.2,0.9,2.5,1.5,3.9
			c0.2,2.4,0.2,4.9,0,7.5c-0.7,0.5-1.1,1.1-1.3,1.8c-1.2,0.5-2.4,0.9-3.6,1.3c-1.7-0.5-3.3-1-4.6-1.5c-1.7-2.6-3.3-5.2-4.6-7.7
			c0-1.2-0.2-2.2-0.5-3.1c0.9-0.7,1.8-1.1,2.8-1.3v-1.3C607.9,94.8,609,93.9,610,93.2z"/>
		<path class="st4" d="M770.8,36.6c0.9,0.7,1.7,1.5,2.6,2.6v1.5c-0.9,0.9-1.7,1.7-2.6,2.6c-0.7-0.2-1.3-0.1-1.8,0.3
			c1.2,0.5,2.7,1,4.4,1.5c0.9,0.9,1.7,2,2.6,3.3c-0.3,0.3-0.5,1.2-0.5,2.6c-1.2,0.3-2.3,0.8-3.3,1.3c-5.8,0-11.4,0.3-16.7,0.8
			c-0.5,0.2-0.9,0.6-1,1.3c-0.2,1.4-0.1,2.7,0.3,3.9c4.3,0.2,8.6,0.5,12.9,1c1.5,0.7,3.2,1.3,4.9,1.8c1.5,1.2,3.1,2.3,4.6,3.3
			c0.7,0.9,1.5,1.8,2.3,2.8c1,2.6,2.1,5.3,3.1,8.2c0,5.5,0,11,0,16.5c-0.5,0.5-0.8,1.2-0.8,2.1c-0.2,4.6-0.3,9.1-0.5,13.4
			c-0.7,1.2-1.2,2.5-1.5,3.9c-2.2,0-4.5,0-6.7,0c-0.5-1.2-1.4-2.1-2.6-2.6c-0.7-5.8-0.7-11.3,0-16.5c-4.3,2.1-8.8,3.9-13.7,5.4
			c0.3,4.5,0.6,9,0.8,13.7c0.3,0.3,0.8,0.7,1.3,1c0.7-0.5,1.5-0.9,2.6-1.3c1,0.5,2.2,0.8,3.6,0.8c1,0.7,2.1,1.4,3.3,2.1
			c0.7,0.9,1.1,1.9,1.3,3.1c1.4,0.5,2.9,0.7,4.6,0.5c4.5-1.4,9.2-2.4,14.2-3.1c0.7,1,1.8,1.5,3.3,1.5c0,1,0.2,2.1,0.5,3.3
			c-1.2,0.9-2.2,1.9-3.1,3.1c-5.7,1.5-11.3,2.7-17,3.6c0.2,2.4,0.3,5,0.3,7.7c0,0.7,0.3,1.2,0.8,1.5c-0.5,3.8-0.9,7.4-1.3,10.8
			c-0.9,0.9-1.5,1.9-1.8,3.1c-1,0.9-2.1,1.7-3.1,2.6c-3.3,0.9-6.4,2.1-9.5,3.6c-0.9,0-1.5-0.2-2.1-0.5c-2.6,0.7-5.1,1.5-7.5,2.3
			l-1-1c-1.5,0.2-2.7,0-3.6-0.5c-1.4,0.2-2.8,0.4-4.4,0.8c-0.5-0.3-0.9-0.7-1.3-1c-1-0.2-1.8,0.1-2.3,0.8c-1-0.3-1.4-0.9-1-1.5
			c-2.4-0.2-4.6-0.7-6.4-1.5c1.4-0.9,3.1-1.2,5.2-1c0-0.3-0.1-0.7-0.3-1h2.3c4.5-1,8.8-2.3,13.1-3.9c1.9-1,3.9-2.1,5.9-3.3
			c0.5-0.2,1-0.1,1.5,0.3c0.3-0.3,0.8-0.7,1.3-1c0.3-1.5,0.9-2.8,1.5-3.9c0-4.3-0.3-8.3-0.8-12.1c-0.7-0.7-1.4-1.1-2.1-1.3
			c-5.8-0.2-11.4,0-16.7,0.5c-0.9,0-1.2,0.3-1,1c1.9,1,3.4,2.6,4.6,4.6v2.8c-0.5,0.7-0.9,1.5-1.3,2.6c-1.9,0.2-3.6,0.8-5.2,1.8
			c-1.7-0.3-3.3-0.5-4.9-0.5c-0.9-0.9-1.7-1.3-2.6-1.3c-0.5-1.5-1.1-2.9-1.8-4.1c-0.7,0-1.1-0.3-1.2-0.8c-0.1-0.5,0.1-0.9,0.6-1.3
			c-0.9-0.5-1-1-0.5-1.4c0.5-0.4,1.1-0.8,1.8-1.2l-0.8-0.8c-3.4,1-7,1.7-10.6,2.1c-2.4-1.4-4.5-2.8-6.2-4.4c0.7-1.2,1.3-2.2,1.8-3.1
			c0.5,0.2,1.2,0.1,2.1-0.1c0.9-0.3,1.7-0.6,2.6-1.2c3.3-0.5,6.6-0.9,10-1.3c0.3-0.2,0.6-0.4,0.8-0.8c6-0.5,12.2-1,18.5-1.5
			c3.6-0.2,7.1,0,10.6,0.5c0.5-1,0.7-2.1,0.5-3.1l-1.3-1.3c-0.5,0-0.9,0.3-1.3,0.8c-0.7-0.5-1.3-0.7-1.9-0.6
			c-0.6,0.1-1.2,0.2-1.7,0.4c-1-0.5-1.9-0.9-2.6-1.3c-1.7-3.9-3.1-8-4.1-12.1c-4.5,0.3-8.8,1.3-12.9,2.8c0.2,3.4,0.5,6.9,1,10.3
			c-0.7,0.5-1.4,1.1-2.1,1.8c-1.9-0.3-3.6-0.6-5.2-0.8c-0.9-0.5-1.3-1-1.4-1.5c-0.1-0.5-0.1-1-0.1-1.5c-1-1.4-1.8-2.7-2.3-3.9v-6.4
			c-0.3-0.5-0.7-0.8-1-0.8c0.2-1.7,0.8-3.1,1.8-4.1c-0.2-1.2-0.1-2.3,0.3-3.3c-1-0.5-2-0.8-2.8-0.8c-0.9,0-1.5,0.3-1.8,0.8h-4.1
			c-1.4,0.2-2.6,0.6-3.6,1.3c0,9.6-0.2,19.2-0.5,28.9c-0.3,0.7-0.8,1.4-1.3,2.1v2.1c-0.9,1.5-1.5,3.3-2.1,5.2
			c-0.5-0.2-0.9-0.1-1,0.3v2.3c-0.5,0.3-0.9,0.3-1.3,0v1.5c-1,0-2-0.1-2.8-0.3c-0.9-0.2-1.3-0.5-1.3-1c-0.2-2.7-0.3-5.4-0.5-8
			c-0.5-0.3-0.9-0.6-1-0.8c-1.2-10.5-2.2-20.4-3.1-29.9c-5.2,0.9-10.4,1.5-15.7,2.1c-2.4-0.3-4.7-0.9-7-1.5c-0.3-1.5-0.4-3-0.3-4.4
			c0.9,0,1.7-0.1,2.6-0.3c-0.2-0.5-0.1-0.9,0.3-1.3h4.9c2.7-0.7,5.6-1.4,8.5-2.1c0.7,0,1.5,0.1,2.6,0.3c1.4-0.7,2.8-1.2,4.4-1.5
			c0.3-3.1,0.5-6.4,0.5-10c0.7-1,1.1-2.2,1.3-3.6c0.9-0.5,2-0.5,3.3,0c0.3-0.2,0.6-0.4,0.8-0.8c1.5,0.3,3.2,0.8,4.9,1.3
			c1.2,1,2.3,2.2,3.3,3.6c0.2,2.2,0.3,4.6,0.5,7c0,0.3,0.3,0.6,0.8,0.8c2.6-0.3,5.2-0.4,8-0.3c0.2-0.3,0.5-0.6,1-0.8
			c-0.2-0.5-0.4-0.8-0.8-0.8c0-0.9,0.1-1.5,0.3-2.1c1.4-1.2,2.7-2.5,4.1-3.9c0.3-3.4,0.6-7,0.8-10.8c-0.5-1.2-0.7-2.4-0.5-3.6
			c1.4-0.7,2.8-1.3,4.4-1.8h2.6c0.3-0.3,0.6-0.7,0.8-1c3.3-0.3,6.5-0.9,9.8-1.8c0-1.7-0.1-3.2-0.3-4.4c-5.8,1-11.6,1.8-17.3,2.3
			c-2.2-0.9-4.3-2-6.2-3.3c-0.2-1-0.2-2.1,0-3.1c0.2-0.3,0.9-0.6,2.3-0.9c1.4-0.3,2.3-0.6,2.8-0.9c6.4-1,12.7-2.1,19.1-3.3
			c0-1.7,0.1-3.4,0.3-5.2c0.3-0.5,0.9-0.9,1.5-1c0.2,0.3,0.6,0.5,1.3,0.5c0.5-1,1.4-1.5,2.6-1.3c2.7,1.9,5.5,3.9,8.2,5.9
			c4.1-0.3,8.1-0.7,11.8-1c-1.7-0.7-3.3-1.4-4.9-2.1c-0.7-1-1.2-1.8-1.7-2.4c-0.4-0.6-0.4-1,0-1.2c0.4-0.2,0.8-0.2,1.2,0
			c0.5-0.7,0.9-1.3,1.3-1.8C765.4,36.1,768,36.2,770.8,36.6z M736.2,84c-2.1,0.5-4,1.2-5.9,2.1v6.4c0.2,0.7,0.6,1.3,1.3,1.8
			c3.8-0.5,7.4-1.4,10.8-2.6c-0.5-2.7-0.9-5.5-1-8.2C739.5,83.4,737.8,83.6,736.2,84z M732.1,68.8c-0.2,2.7-0.3,5.4-0.5,8
			c3.4-0.3,6.5-1.1,9.3-2.3c-0.5-2.1-0.7-4.3-0.5-6.7C737.6,67.6,734.9,67.9,732.1,68.8z M754.3,66.2c-0.7,2.4-0.7,4.6,0,6.7
			c4.3-0.5,8.9-0.7,13.9-0.5c0.3-0.2,0.6-0.4,0.8-0.8c-0.5-1.2-1-2.2-1.5-3c-0.5-0.8-1.1-1.3-1.8-1.7c-2.1-0.5-4-0.9-5.9-1.3
			C757.6,65.3,755.8,65.5,754.3,66.2z M754,80.9c0.2,1.9,0.3,3.9,0.3,5.9c0.3,0.7,0.8,1.5,1.3,2.3c1.7-0.5,3.6-0.9,5.7-1.3
			c2.7-1.4,5.6-2.6,8.5-3.6c0.2-0.7,0.5-1.2,1-1.5c0.2-1.4,0-2.5-0.5-3.3C764.6,79.2,759.2,79.7,754,80.9z"/>
		<path class="st4" d="M854.2,36.8c2.6,1.5,5.2,3.1,7.7,4.6c0,2.2-0.3,4.4-1,6.4l-1.3,1.3c-0.2,0.3-0.1,0.8,0.3,1.3
			c3.9,0,8.2,0,12.6,0c4.3,0.9,8.8,1.8,13.7,2.8c3.3,0,6.4-0.3,9.5-0.8c1.5,0.7,3.2,1.2,4.9,1.5c0.5,0.9,1,1.9,1.5,3.1v4.1
			c-0.3,0.3-0.6,0.7-0.8,1c-0.3,7-0.7,14-1,20.9c-1.2,3.1-1.9,6.4-2.1,10c-0.5,1-1.1,1.9-1.8,2.6c-1.5,0.2-2.7,0.2-3.3,0
			c-1,0.5-1.7,1.2-2.1,2.1c-0.3-0.2-0.6-0.4-0.8-0.8c-0.3,0.3-0.6,0.7-0.8,1c-0.3-0.7-0.8-1-1.3-1c-0.5-2.7-0.9-5.7-1-8.8
			c0-7.4,0.5-14.4,1.5-21.1c0.2-1.4,0-2.6-0.5-3.6c-5.3-1-10.5-2.1-15.5-3.1c-12.5-0.2-25.2-0.2-37.9,0c-1.9,0.7-3.6,1.8-5.2,3.3
			c-0.2,3.1-0.6,6.2-1.3,9.3c0,5.3-0.2,10.7-0.5,16.2c0.3,3.1,0.7,6.4,1,10c-0.5,0.3-0.9,0.9-1,1.8c-1.9,0.7-3.8,1.1-5.7,1.3
			c-0.9-0.5-1.7-0.9-2.6-1.3c-0.5-1.7-1.5-3.1-2.8-4.1c-0.7-9.1-0.7-18.2,0-27.3c0.5-3.8,1.3-7.3,2.3-10.6c1.7-1.4,3.7-2.9,5.9-4.5
			c2.2-1.6,4.8-2.9,7.7-3.7c6.7,0.2,13.3,0,19.8-0.5c-0.3-0.7-0.8-1-1.3-1h-2.3c0-0.7-0.2-1.2-0.5-1.5c-0.7,0.2-1.3,0.2-1.8,0
			c0.5-1.7,0.7-3.5,0.5-5.4c0.5-1.5,1.4-2.8,2.6-3.9c0.2,0.2,0.4,0.3,0.8,0.5C851.8,38.3,853,37.5,854.2,36.8z M847.5,66.4
			c-0.2,1-0.1,2.1,0.3,3.1c0.3-0.2,0.7-0.3,1-0.3c0.2,1,0.7,1.9,1.5,2.6c1.5-0.2,3.1-0.5,4.6-1c4.6,0,9.4-0.1,14.2-0.3
			c1,0.7,2.2,1.4,3.6,2.1c1.2,0,2.5,0.3,3.9,0.8c0.9,0.7,1.5,1.6,2.1,2.8c-0.2,1-0.1,2.1,0.3,3.3c-3.3,6-6.8,11.9-10.6,17.8
			c1.5,0.7,3.3,1.3,5.3,1.8c2,0.5,4.1,0.9,6.3,1.3c9.8,3.6,19.6,7.3,29.4,11.1c0.7,0.9,1.4,1.8,2.1,2.8c0.2,1,0,2-0.5,2.8
			c-1,0.7-2.1,1.5-3.3,2.6h-3.6c-9.8-3.6-19.6-7.2-29.4-10.8c-4-0.9-7.8-1.6-11.6-2.3c-2.8,3.8-5.5,7.4-8.2,10.8
			c-0.2,0.5,0.1,0.9,0.8,1.3c2.1-1.5,4-3.1,5.9-4.6c1.2,0.5,2.1,1.6,2.8,3.3c0.7,0,1.3-0.3,1.8-0.8h4.6c0.2-0.3,0.4-0.7,0.8-1
			c2.2-0.2,4.4,0,6.4,0.5c2.7,1.7,5.5,3.6,8.2,5.7c0.2,0.7,0.5,1.4,1,2.1c0,1.2-0.1,2.6-0.3,4.1c-1.9,4.5-3.8,8.9-5.7,13.4
			c-2.1,2.1-3.6,4.5-4.6,7.2c-2.7,2.2-5.5,4.4-8.2,6.4c-0.9,0-1.6,0.3-2.3,0.8c-3.1,0.2-5.9,0-8.5-0.5c-1.9-1.5-3.7-3-5.4-4.4
			c-2.4-3.6-4.3-7.2-5.7-10.8c-0.2-1.5-0.2-3,0-4.4c1.5-3.4,2.8-6.7,3.9-9.8c-0.7,0-1.2,0.2-1.5,0.5c-2.6,4.8-5.5,9.5-8.8,14.2
			c-1.2,0-2.3,0.3-3.3,0.8c-0.7-0.3-1.1-0.7-1.3-1.2c-0.2-0.4-0.2-0.7,0-0.9c-0.7-0.3-1.2-0.8-1.5-1.3c-1.7,0-3.2,0-4.4,0
			c0-1.4-0.4-2.4-1.3-3.1c6.2-9.1,12.2-18.2,18-27.3c0.7-0.5,1.4-0.9,2.1-1.3c0.2-1.4,0.8-2.7,1.8-4.1c-0.9-1-1.8-1.5-2.8-1.3
			c-0.9-0.9-1.5-1.7-1.8-2.6c-0.5-0.2-0.9-0.1-1.3,0.3c-0.5,3.1-1.1,6.2-1.8,9.3c-0.9,1.4-1.8,2.7-2.8,3.9c-1.9-0.3-3.3-0.9-4.4-1.8
			c-0.9,0-1.7,0-2.6,0c-0.2-0.9-0.3-1.6-0.5-2.3c0-3.6,0.3-7.1,0.8-10.6c1.9-6.9,3.4-13.9,4.6-21.1c1-2.2,2.2-4.3,3.6-6.2v-2.1
			c0.5-0.7,1.1-1.2,1.8-1.5C844.3,66.2,845.8,66.3,847.5,66.4z M848.5,81.9c-0.5,0.3-0.9,0.8-1,1.3c-0.5,2.7-1,5.6-1.5,8.5
			c0.5,0.5,1.2,0.9,2.1,1.3c0.7-0.3,1.7-0.3,3.1,0.1c1.4,0.4,2.5,0.6,3.3,0.6c0.7-1,1.5-2,2.3-2.8c1.9-3.8,3.6-7.4,5.2-10.8
			C857.5,80.8,853,81.4,848.5,81.9z M857.3,140.1c0,0.7,0.2,1.5,0.6,2.3c0.4,0.9,1.2,1.8,2.4,2.8h2.1c2.7-2.1,5.2-4.3,7.5-6.7
			c1.7-2.9,3.5-5.8,5.4-8.8c0-1.2,0.2-2.2,0.5-3.1c-2.7-1.2-5.7-1.8-8.8-1.8c0.3-1.4,0-2.3-1-2.8
			C862.8,127.9,859.9,133.9,857.3,140.1z"/>
	</g>
	<g>
		<path class="st4" d="M290.8,161.1c0.3-0.1,0.7-0.1,1.1,0.2c0.4,0.2,0.9,0.2,1.5-0.2c0.5,0.6,1,1.3,1.6,2.1c-0.1,2.2-0.4,4.5-0.9,7
			c-0.7,1.3-1.2,2.7-1.6,4.3s-0.5,3.1-0.5,4.6c-1.5,3.7-2.6,7.7-3.3,11.9c0,0.2,0.2,0.4,0.5,0.5c2.3-0.3,4.8-0.5,7.5-0.3
			c2.2,0.6,4.4,1.3,6.5,2.1c0.5,0.7,1,1.2,1.7,1.4c0.6,1,1.3,2.1,2.3,3.1c0.5,1,0.9,2.2,1.2,3.5c-0.1,1.3-0.3,2.5-0.7,3.7
			c-1.7,1.9-3.2,3.9-4.4,6.1c-1.4,0.8-2.5,1.7-3.3,2.8c-2.4,1.3-4.8,2.5-7.2,3.7c-1.9,0.3-3.7,0.3-5.4,0c-1-0.8-2-1.7-3-2.8
			c-0.5-0.1-0.8-0.1-1,0.2c-0.2,0.6-0.3,1.3-0.3,2.1h-0.7c-0.2,0.6-0.6,1.2-1,1.7c-1.2-0.1-2.2-0.2-3.1-0.3c-0.5-0.6-1-0.9-1.6-0.9
			c-0.5-2-0.8-4-1-5.9c0.2-1.6,0.8-3,1.6-4.2c0.3-2.8,0.8-5.5,1.4-8c0.3-0.9,0.8-1.8,1.2-2.6c1.3-5.1,2.4-10.2,3.5-15.4
			c2.2-6.5,4.4-13,6.5-19.6C290.1,161.5,290.5,161.2,290.8,161.1z M289.4,197.3c-0.9,0.7-1.7,1.4-2.4,2.1c-1.2,4.1-2,8.2-2.6,12.4
			l0.5,0.5c1.4,0,2.7-0.1,4-0.3c2.2-1.7,4.4-3.5,6.6-5.4c1.3-2.1,2.5-4.2,3.7-6.3c-0.2-0.9-0.7-1.6-1.3-2.1c-0.6-0.5-1.3-0.8-1.8-1
			c-1.3,0-2.4-0.1-3.5-0.3C291.4,196.9,290.4,197,289.4,197.3z M296.6,205.2c-0.2,0.4-0.1,0.7,0.3,0.8c0.4,0.1,0.8,0.1,1.3,0
			c0-0.3-0.1-0.6-0.2-0.9C297.3,204.8,296.8,204.8,296.6,205.2z"/>
		<path class="st4" d="M332.9,160.6l0.7,0.7c0.5-0.1,0.9-0.2,1.4-0.2c0.3,0.5,0.9,0.8,1.6,0.9c0.3,1.5,0.4,3.3,0.2,5.2
			c-0.3,0.6-0.6,1.2-0.7,1.9c-0.1,2.4-0.3,5-0.5,7.7c-0.2,0.2-0.4,0.5-0.5,0.7c0,0.9,0,2,0,3.1c-1.2,5.4-2.2,10.8-3,16.2
			c0.1,1.5,0,3.2-0.3,5.1c-0.3,1.9-0.8,3.8-1.4,5.9c0,0.2,0.2,0.4,0.5,0.5c2.8-2.6,5.8-4.8,9.1-6.6c0.3,0.2,0.7,0.4,1,0.5
			c-0.2,0.1-0.3,0.4-0.2,0.8c0.1,0.4,0.5,0.7,1,0.8c-0.5,1.3-0.8,2.6-1,3.8c-1.2,1-1.9,2.3-2.3,3.8c-1.3,1-2.4,2.1-3.3,3.1
			c-1.6,0.9-3.3,1.7-5.1,2.3h-1.2c-0.6,0.2-1,0.6-1.2,1.2c-0.6,0.1-1.2,0.2-1.7,0.3c-1.2-0.7-2.3-1.2-3.3-1.6
			c0.3-2.6,0.9-5.2,1.6-7.9c0.8-3.1,1.7-6.2,2.8-9.1c-0.1-0.6-0.1-1.1-0.1-1.5c0.1-0.4,0.2-0.7,0.4-0.8c0-1.2,0.1-2.3,0.3-3.4
			c0.2-1.1,0.5-2.2,1-3.2c-0.2-0.6-0.3-1.1-0.2-1.6c0.8-6.2,1.6-12.2,2.4-18.2c-0.2-2.8-0.2-4.9,0.2-6.3c0.5-1,0.7-2,0.7-3
			C332.2,161.4,332.6,160.8,332.9,160.6z"/>
		<path class="st4" d="M380.1,181.4c0.8,0.3,1.7,0.7,2.6,1c1,1.4,1.9,3,2.6,4.7v4.5c-0.9,2.1-1.6,4.4-2.1,7
			c-0.8,1.6-1.7,3.3-2.6,4.9c-0.3-0.1-0.6-0.1-0.7,0.2c-0.6,0.8-0.9,1.7-1,2.8c-0.3,0.1-0.6,0.2-0.9,0.2c-1,1.6-2.2,3.1-3.3,4.5
			c-0.8,0.6-1.6,1.2-2.4,1.7c-0.3,0.5-0.7,1-1,1.6c-1.5,0.6-2.9,1.3-4,2.1c-2.2,0.2-4.2,0.7-5.9,1.4c-1,0.1-2,0.1-2.8,0
			c-1.5-0.6-2.9-1.2-4.2-1.9c-0.8-0.9-1.6-1.8-2.3-2.6c-0.6-1.5-1.2-2.9-1.7-4.2c0-1.6-0.2-3-0.7-4.2c0.2-1.3,0.4-2.6,0.5-4
			c1.3-2.4,2.5-4.9,3.7-7.3c2-2.6,4.3-4.9,7-7c0.9-0.3,1.9-0.7,2.8-1c0.6,0.3,1.4,0.5,2.4,0.5c0.3-0.5,0.5-0.9,0.3-1.4
			c2.6-1,5.1-2.2,7.5-3.3C375.7,181.6,377.8,181.5,380.1,181.4z M367.8,190.3c-1.9-0.1-3.6,0-5.1,0.3c-2.1,3.7-4.2,7.3-6.3,10.8
			c-0.2,2-0.3,4-0.3,6.1c0.3,0.5,0.8,0.9,1.4,1.3c0.6,0.4,1.3,0.8,2.3,1.3h4.2c1.3-0.6,2.6-1.2,4-1.7c0.3-0.7,0.6-1.3,0.9-1.7h1
			c1.7-1.9,3.4-3.8,5.1-5.8c0.9-2.4,1.8-4.9,2.6-7.3c0-2.1-0.2-4-0.5-5.6h-2.3C372.4,188.7,370,189.5,367.8,190.3z"/>
		<path class="st4" d="M412.9,180.5h1.6c0.5,0.3,1.2,0.7,2.1,1c0.3,1.4,0.6,2.9,0.9,4.4c0.9,0.2,1.6,0.8,2.1,1.6
			c0.5-0.1,0.9-0.1,1.4,0.2v1.6c0.2,0.3,0.5,0.7,0.9,1c-0.1,2,0.1,3.9,0.5,5.8c1.2-0.3,2.2-1,3-1.9c1.3,0.1,2.4,0.2,3.5,0.3v3.3
			c-0.6,0.8-1,1.7-1.4,2.8c-1.6,1.4-3.2,2.7-4.7,4c0.1,3.5,0.1,7-0.2,10.6c-0.6,2.1-1.2,4.2-1.7,6.3c-1.5,1.9-3.1,3.6-4.7,5.2
			c-1.7,0.8-3.3,1.7-4.7,2.8c-1.5,0.2-2.9,0.6-4,1.2c-1.9,0.2-3.6,0.2-5.2-0.2c-1.7-1.2-3.5-2.4-5.2-3.8c-0.2-2.2-0.6-4.3-1-6.1
			c-0.3-0.1-0.3-0.5,0-1.2c0.3-0.7,0.3-1.2,0-1.6c0.2-0.2,0.5-0.8,0.7-1.6h0.7c0.2-0.6,0.7-1,1.3-1.3c0.6-0.3,1.3-0.7,2-1.1
			c1.5-1.6,3.2-3.1,5.1-4.4c0.2,0.1,0.5,0.3,0.7,0.7c0.5-0.2,0.9-0.5,1.4-0.7c0.5-0.2,0.6-0.5,0.3-0.9c-2.1-0.3-4.3-0.5-6.5-0.5
			c-1.4-0.8-2.7-1.6-4-2.4c-0.6-0.9-1.2-1.7-1.9-2.4c-0.5-1.4-0.9-2.6-1.4-3.5c-0.1-1.4-0.1-2.7,0-4c0.1-0.2,0.3-0.5,0.5-0.9
			c-0.2-0.1-0.1,0.1,0.5,0.5c0.3-1.5,0.8-3.1,1.2-4.7c1.4-1.4,3-2.7,4.9-3.8c0-0.6,0.2-1,0.7-1.4C405.4,183.4,409,181.8,412.9,180.5
			z M405.7,190.6c-1,0.9-2.1,1.9-3.1,2.8c-0.2,0.7-0.6,1.3-1,1.7c0.5,1.5,0.8,3.2,1,5.1c0.3,0.3,0.8,0.8,1.2,1.4
			c0.9,0,1.9-0.1,2.8-0.3c1.9-2.1,3.8-4.1,5.8-5.9c0.6-1.2,1-2.3,1.4-3.5c-0.1-1.5-0.3-2.9-0.7-4h-1.9
			C409.3,188.7,407.5,189.6,405.7,190.6z M412.9,209.5c-0.6,0.5-1,1.2-1.4,2.1c-0.8,0.2-1.6,0.5-2.4,0.7c-0.1,0.6-0.5,1-1,1.4
			c0-0.7-0.2-0.9-0.7-0.5c0,0.8,0.3,1.6,0.9,2.3c-0.6,0-0.7,0.2-0.3,0.7c0.3,0,0.6-0.1,0.9-0.3c-1.2,1.5-2.6,3-4.4,4.5
			c-0.6,0.6-0.9,1.3-1,2.1l0.3,0.3c1.2-0.1,2.3-0.4,3.3-0.9c2.1-1.6,4.1-3.4,6.1-5.2c0.5-2.4,0.9-4.8,1.4-7
			c-0.6-0.7-1.2-1.1-1.7-1.2C412.4,208.8,412.4,209.1,412.9,209.5z M403.8,207.6h1.6c0.3-0.3,0.4-0.7,0.2-1
			c-0.6-0.2-1.1-0.3-1.6-0.2C403.5,206.7,403.4,207.1,403.8,207.6z M405.7,218c0.3,0,0.7-0.1,1-0.3c0-0.3-0.1-0.6-0.2-0.9
			C405.8,216.9,405.5,217.3,405.7,218z M408.6,201.1c-0.2,0.3-0.1,0.6,0.1,0.7c0.2,0.1,0.5,0,0.8-0.3c0.3-0.3,0.3-0.6,0.1-0.8
			C409.1,200.6,408.8,200.8,408.6,201.1z M409.2,204.8c0.3,0,0.8-0.1,1.2-0.2c0-0.5-0.1-0.8-0.2-1h-1
			C408.9,203.9,408.9,204.3,409.2,204.8z M410.6,221.4c0.2-0.1,0.4-0.3,0.5-0.5c-0.3-0.6-0.7-1-1-1.2
			C409.7,220.3,409.9,220.9,410.6,221.4z M410.8,211.2c0.3,0,0.7-0.1,1-0.2c0-0.3-0.1-0.6-0.3-0.9c-0.2-0.2-0.5-0.3-0.7-0.2
			C410.4,210.4,410.4,210.8,410.8,211.2z M412,198.1c0.3,0,0.7-0.1,1-0.2c0-0.5-0.1-0.8-0.2-1c-0.5-0.1-0.8-0.2-1-0.2
			C411.5,197.2,411.5,197.7,412,198.1z M412.5,218.4c-0.1,0.3,0,0.7,0.3,1h0.9c0.2-0.3,0.3-0.7,0.3-1c-0.3-0.5-0.7-0.7-1-0.7
			C412.8,217.8,412.6,218,412.5,218.4z M413,202.6c-0.3,0.6-0.3,1.3,0.1,2h0.7c0.3-0.7,0.4-1.4,0.2-2.1c0.2,0,0.4-0.1,0.5-0.3
			c0.1-0.2,0.1-0.4,0-0.5C413.8,201.6,413.3,202,413,202.6z"/>
		<path class="st4" d="M445.9,210.9c0.8,0.7,1.5,1.7,2.1,3v2.6c-0.5,0.5-0.9,1-1.4,1.6c-0.9,0.6-1.9,1.1-2.8,1.6
			c-1-0.2-2.1-0.3-3.1-0.2c-0.2-0.7-0.6-1.2-1.2-1.6c-0.1-1.3,0.1-2.4,0.5-3.5c-0.3-0.2-0.6-0.5-0.7-0.8c-0.1-0.3-0.1-0.6,0.2-1
			c0.7-0.2,1.1-0.6,1.2-1.2c1.4-0.3,2.9-0.3,4.4,0C445,210.9,445.3,210.8,445.9,210.9z"/>
		<path class="st4" d="M483.1,180.7h3.7c1.3,0.7,2.6,1.6,4,2.6c0.1,0.7,0.5,1.3,1.2,1.9c0.5,2,0.9,4.1,1.4,6.3
			c0.1,3.1,0.2,6.5,0.2,10c-0.5,1.5-0.7,3.2-0.7,5.1c0.1,2.2,0.2,4.6,0.2,7.2c-0.2,0.6-0.5,1.2-0.7,1.9c-0.5,0.1-0.9,0.4-1.2,0.9
			c-0.8-0.3-1.7-0.4-2.6-0.2c-0.5-0.5-0.9-0.8-1.4-0.9c-0.3-1-0.6-2.1-0.7-3.1c-0.3,0-0.6-0.1-0.9-0.2c-0.1-0.6-0.3-1.1-0.5-1.6
			c0.2-5.8,0.6-11.6,1.2-17.3c-0.3-1.6-0.6-3.2-0.9-4.7c-0.2-0.2-0.5-0.4-0.9-0.4c-0.3-0.1-0.6,0-0.9,0.3c-1.2,1.7-2.2,3.5-3.1,5.2
			c-1.7,5.5-3.2,11.1-4.4,16.9c0,1.5-0.2,3-0.5,4.5c-0.6-0.1-0.9,0.2-1,1c-0.8-0.3-1.6-0.3-2.3,0c-0.3-0.6-0.8-1-1.4-1.2
			c0-0.7-0.2-1.3-0.5-1.7c-0.7,0-1-0.2-1-0.7c0.1-4.9,0.4-9.7,0.9-14.3c-0.3-2.1-0.7-4.1-1-6.1c-0.7,0.5-1.4,1-2.1,1.7
			c-0.9,1.2-1.8,2.4-2.6,3.8c-1.7,3.8-3,7.9-3.8,12c-0.1,1.9-0.2,3.8-0.2,5.9c-0.5,0.8-0.9,1.7-1.2,2.6c-0.8-0.2-1.5-0.5-2-0.7
			c-0.5-0.2-0.7-0.6-0.6-1c-0.5-0.6-1-0.9-1.7-1c-0.6-1-0.8-2-0.7-3c-0.3-0.2-0.6-0.3-0.7-0.3c0.3-4,0.8-7.9,1.4-11.9
			c0.6-4,1.4-7.9,2.4-11.7h0.5c-0.1-0.6-0.1-1.1,0-1.6c1.2-1.2,2.2-2.5,3.1-4c0.5,0,0.9,0,1.4,0c0.8,1.2,1.5,2.3,1.9,3.5
			c1.5-1,3-2.1,4.5-3.1c1.6-0.5,3.1-0.6,4.4-0.3c0.6,0.5,1.2,0.9,1.9,1.4c0,1.2,0.3,2.2,1,3.1c0.8-1.3,1.7-2.7,2.8-4.2
			C480.3,182.4,481.7,181.5,483.1,180.7z M456.4,194.8c0.1,0.1,0.3,0,0.5-0.3c0.2-1.4,0.3-2.6,0.2-3.5
			C456.5,192.1,456.2,193.4,456.4,194.8z"/>
		<path class="st4" d="M531.8,181.4c0.8,0.3,1.7,0.7,2.6,1c1,1.4,1.9,3,2.6,4.7v4.5c-0.9,2.1-1.6,4.4-2.1,7
			c-0.8,1.6-1.7,3.3-2.6,4.9c-0.3-0.1-0.6-0.1-0.7,0.2c-0.6,0.8-0.9,1.7-1,2.8c-0.3,0.1-0.6,0.2-0.9,0.2c-1,1.6-2.2,3.1-3.3,4.5
			c-0.8,0.6-1.6,1.2-2.4,1.7c-0.3,0.5-0.7,1-1,1.6c-1.5,0.6-2.9,1.3-4,2.1c-2.2,0.2-4.2,0.7-5.9,1.4c-1,0.1-2,0.1-2.8,0
			c-1.5-0.6-2.9-1.2-4.2-1.9c-0.8-0.9-1.6-1.8-2.3-2.6c-0.6-1.5-1.2-2.9-1.7-4.2c0-1.6-0.2-3-0.7-4.2c0.2-1.3,0.4-2.6,0.5-4
			c1.3-2.4,2.5-4.9,3.7-7.3c2-2.6,4.3-4.9,7-7c0.9-0.3,1.9-0.7,2.8-1c0.6,0.3,1.4,0.5,2.4,0.5c0.3-0.5,0.5-0.9,0.3-1.4
			c2.6-1,5.1-2.2,7.5-3.3C527.5,181.6,529.6,181.5,531.8,181.4z M519.6,190.3c-1.9-0.1-3.6,0-5.1,0.3c-2.1,3.7-4.2,7.3-6.3,10.8
			c-0.2,2-0.3,4-0.3,6.1c0.3,0.5,0.8,0.9,1.4,1.3c0.6,0.4,1.3,0.8,2.3,1.3h4.2c1.3-0.6,2.6-1.2,4-1.7c0.3-0.7,0.6-1.3,0.9-1.7h1
			c1.7-1.9,3.4-3.8,5.1-5.8c0.9-2.4,1.8-4.9,2.6-7.3c0-2.1-0.2-4-0.5-5.6h-2.3C524.1,188.7,521.8,189.5,519.6,190.3z"/>
		<path class="st4" d="M575.2,181.4c0.8,0.3,1.7,0.7,2.6,1c1,1.4,1.9,3,2.6,4.7v4.5c-0.9,2.1-1.6,4.4-2.1,7
			c-0.8,1.6-1.7,3.3-2.6,4.9c-0.3-0.1-0.6-0.1-0.7,0.2c-0.6,0.8-0.9,1.7-1,2.8c-0.3,0.1-0.6,0.2-0.9,0.2c-1,1.6-2.2,3.1-3.3,4.5
			c-0.8,0.6-1.6,1.2-2.4,1.7c-0.3,0.5-0.7,1-1,1.6c-1.5,0.6-2.9,1.3-4,2.1c-2.2,0.2-4.2,0.7-5.9,1.4c-1,0.1-2,0.1-2.8,0
			c-1.5-0.6-2.9-1.2-4.2-1.9c-0.8-0.9-1.6-1.8-2.3-2.6c-0.6-1.5-1.2-2.9-1.7-4.2c0-1.6-0.2-3-0.7-4.2c0.2-1.3,0.4-2.6,0.5-4
			c1.3-2.4,2.5-4.9,3.7-7.3c2-2.6,4.3-4.9,7-7c0.9-0.3,1.9-0.7,2.8-1c0.6,0.3,1.4,0.5,2.4,0.5c0.3-0.5,0.5-0.9,0.3-1.4
			c2.6-1,5.1-2.2,7.5-3.3C570.9,181.6,573,181.5,575.2,181.4z M563,190.3c-1.9-0.1-3.6,0-5.1,0.3c-2.1,3.7-4.2,7.3-6.3,10.8
			c-0.2,2-0.3,4-0.3,6.1c0.3,0.5,0.8,0.9,1.4,1.3c0.6,0.4,1.3,0.8,2.3,1.3h4.2c1.3-0.6,2.6-1.2,4-1.7c0.3-0.7,0.6-1.3,0.9-1.7h1
			c1.7-1.9,3.4-3.8,5.1-5.8c0.9-2.4,1.8-4.9,2.6-7.3c0-2.1-0.2-4-0.5-5.6H570C567.6,188.7,565.2,189.5,563,190.3z"/>
		<path class="st4" d="M599.3,181.7c0.6,0.6,1.2,1.3,1.7,2.1h1.4c1.4-0.8,2.9-1.5,4.4-2.1c2.3-0.3,4.8-0.5,7.5-0.3
			c1.7,0.6,3.4,1.5,4.9,2.6c0.1,0.5,0.4,0.9,0.9,1.2c0.2,1.7,0.5,3.6,0.7,5.6c-0.3,2.6-0.8,5.1-1.2,7.5c-0.2,2.9-0.4,5.9-0.5,8.9
			c0.5,0.3,1,0.5,1.7,0.3c0.7-0.7,1.5-1,2.4-1c0.3,0.2,0.8,0.5,1.2,0.7c0.1,0.9,0.5,1.7,1,2.3c-0.7,2.1-1.6,4.3-2.6,6.5
			c-1.2,0.6-2.2,1.2-3.1,1.9c-2,0.1-3.9,0.1-5.8,0c-1.7-1.3-3.3-2.7-4.7-4.2c-0.6-0.8-1-1.7-1.2-2.6c0.6-3.6,1.2-7.1,1.9-10.5
			c0.2-4,0.6-7.7,1.2-11.3c-0.1-0.5-0.3-0.8-0.7-0.9c-0.8,0-1.6,0.1-2.3,0.2c-1.5,0.8-3,1.7-4.5,2.8c-0.8,0.8-1.6,1.7-2.4,2.6
			c-1,1.7-1.9,3.6-2.6,5.4c-1,4.5-1.8,9.3-2.3,14.1c-0.9,0.5-1.6,1.1-2.1,1.9c-1.2-0.1-2.1-0.3-2.7-0.5c-0.6-0.2-1.1-0.2-1.3,0.2
			c-0.2-0.7-0.6-1.2-1.2-1.4c0-0.7-0.1-1.3-0.2-1.7c-0.9-0.2-1.7-0.5-2.3-0.7V209c1.3-5.9,2.6-11.8,4-17.6c0.6-1.5,1.2-2.9,1.9-4.2
			v-1.2c0.6-1.6,1.5-3.1,2.6-4.4C596.5,181.2,597.9,181.3,599.3,181.7z"/>
		<path class="st4" d="M657.8,180.7c1.6,0.3,3.3,1,4.9,2.1c0.5,1.7,0.8,3.7,0.9,5.8c-0.8,0.5-1.3,1.2-1.4,2.3
			c-0.7,0.2-1.4,0.4-2.1,0.5c0,0.5,0.1,1,0.2,1.6c-0.3-0.2-0.5-0.8-0.5-1.6h-1c-0.2-0.7-0.6-1.2-1-1.4c-0.8,0-1.5,0.1-2.1,0.3
			c-0.9,0.7-1.9,1.3-3,1.9c-1.6,1.7-3.1,3.6-4.5,5.6c-0.9,1.9-1.8,3.8-2.6,5.8c0.2,2.2,0.3,4.4,0.3,6.6c0.1,0.1,0.3,0.3,0.7,0.5
			c0.9,0,2,0.1,3.1,0.2c2.7-0.8,5.4-1.6,8-2.4c1.4-0.1,2.8-0.2,4.1-0.3c1.3-0.1,1.2-0.1-0.3,0.2c-0.1,0.2,0,0.5,0.4,0.7
			c0.4,0.2,0.9,0.5,1.5,0.9c-0.6,0.6-1.3,1.4-2.1,2.4c-0.2,0.8-0.6,1.6-1,2.4h-0.7c-0.2,0.6-0.5,1.2-0.9,1.7
			c-1.7,0.6-3.3,1.3-4.7,2.3c-2.3,0.1-4.6,0.2-6.8,0.2c-0.9-0.5-1.9-0.8-2.8-0.9c-1.4-0.7-2.6-1.5-3.5-2.3c-0.7-1.4-1.6-2.6-2.6-3.5
			c-0.2-1-0.5-1.9-0.9-2.4c0.1-2.3,0.3-4.7,0.5-7.2c0.7-2.6,1.7-5,3-7.3c1.3-2.3,2.6-4.6,4-6.8c1.3-1.2,2.6-2.3,3.9-3.5
			c1.3-1.2,2.8-2.3,4.5-3.3C654.8,181.3,656.3,180.9,657.8,180.7z"/>
		<path class="st4" d="M687.9,160.8c0.5,0,0.9,0.1,1.3,0.4c0.4,0.3,0.7,0.8,1,1.5c0.3,0,0.7,0.1,1,0.3c-0.1,0.2-0.3,0.4-0.5,0.5
			c-0.1,0.5,0.1,0.9,0.5,1.2c-0.2,1-0.7,1.9-1.4,2.6v1.2c-0.2,0.3-0.5,0.6-0.9,0.9c-1,3.5-2.2,6.9-3.5,10.1c-0.3,1.3-0.5,2.6-0.5,4
			c-0.9,2.3-1.7,4.8-2.3,7.3c-0.1,0.5-0.1,0.9,0.2,1.4c2.1-0.9,4.1-2,5.9-3.1c-0.1,0.2-0.1,0.5,0.2,0.9c1.3-0.5,2.7-0.9,4.2-1.4
			c0.5,0.1,1,0.1,1.5-0.1c0.5-0.2,1.1-0.3,1.8-0.4c1.6,0.9,3.1,2.1,4.4,3.5c0,1.3,0.1,2.6,0.2,4c-0.1,0.9-0.3,1.7-0.7,2.4
			c-0.2,3-0.4,6.1-0.5,9.1c0.3,0.3,0.9,0.5,1.6,0.3c1.4-1.2,2.9-2.2,4.5-3.1c0.6,0.2,1.2,0.2,1.9,0c-0.2,0.5-0.6,1-1.2,1.6v1
			c0.5,0.3,0.9,0.9,1.2,1.6c-0.2,1.3-0.6,2.6-1.2,3.8c-1.2,0.6-1.9,1.5-2.3,2.8c-1.2,0.2-2.1,0.8-2.8,1.6c-1.6-0.1-3.1-0.3-4.5-0.5
			c-1.5-0.8-3-1.7-4.4-2.6c-0.8-1.7-1.5-3.4-2.1-4.9c-0.3-2.4-0.4-4.8-0.2-7.2c0.1-0.2,0.3-0.4,0.5-0.5v-3c-0.5-0.7-1-1-1.7-1
			c-1,1-2.3,1.9-3.7,2.4c-1.3,1.4-2.7,2.9-4.4,4.5c-0.6,0.8-1.1,1.7-1.6,2.6c-0.7,3-1.3,6.1-1.7,9.3c-0.3,0.3-0.7,0.8-1,1.4
			c-0.7,0.2-1.3,0.5-1.7,0.9c-0.3-0.5-0.7-0.9-1-1.2c-1.2-0.2-2.2-0.6-3-1.2c0.2-1.2,0.2-2.3,0-3.3c0.3-0.9,0.6-1.9,0.9-3
			c-0.1-0.6-0.1-1.2,0.1-1.7c0.2-0.6,0.4-1.2,0.8-1.9c0.1-1.3,0.2-2.5,0.3-3.7c0.1-0.2,0.3-0.4,0.5-0.5c1-6.7,2.5-13.3,4.4-19.7
			c2.2-5.6,4.4-11.2,6.6-16.8C685.5,163.4,686.6,161.9,687.9,160.8z"/>
		<path class="st4" d="M739.4,180.9c1.9,0.3,3.7,0.9,5.6,1.6c0.6,0.6,1.2,1.3,1.9,2.3c0.7,0.9,1.4,2,2.1,3.1
			c-0.5,0.6-0.6,1.5-0.3,2.6c-1.9,2.8-3.8,5.5-5.8,8c-0.9,0.6-1.7,1.2-2.4,1.8c-0.6,0.6-1.2,1.3-1.7,2c-1.5,0.7-2.9,1.6-4,2.6
			c-2.3,1.2-4.7,2.3-7.2,3.3c0,0.7,0.4,1.3,1.2,1.7c0.8,0.5,1.7,0.8,2.7,1c1,0.2,2.1,0.2,3.2,0.1c2.1-1.2,4.4-2.2,6.8-3.1
			c1.2-1.2,2.6-2.2,4.2-3c0.8,0.3,1.7,0.5,2.6,0.3c-0.2,0.3-0.2,0.9,0.2,1.6c0.7,0,1.2,0.3,1.6,1c-0.5,0-0.8,0.2-0.9,0.7
			c0.1,0.9,0,1.9-0.3,3c-2.1,1.2-4,2.6-5.6,4.2c-2,0.7-3.8,1.6-5.4,2.6c-2.1,0.2-4.2,0.4-6.3,0.5c-2.1-0.5-4.1-1.1-6.1-1.9
			c-1.7-1.4-3.5-2.8-5.2-4.2c-1.3-1.5-2.5-2.9-3.7-4.2c-0.3-2.4-0.7-4.7-1-6.8c0.7-2.6,1.3-5.2,1.9-7.9c1-1.7,2.1-3.5,3.1-5.2h0.9
			c1.2-1,2.3-2.2,3.5-3.3c2-0.8,3.8-1.9,5.6-3.1h2.1c0.2-0.2,0.4-0.5,0.5-0.7C735.1,181.1,737.2,180.9,739.4,180.9z M732.9,189.2
			c-1.2,0.8-2.4,1.6-3.7,2.3c-1.4,2-2.6,4.1-3.7,6.5c-0.3,1.2-0.4,2.2-0.2,3.1h1c3.3-2.3,6.5-4.9,9.8-7.7c0.8-1.2,1.8-2.3,3-3.3
			c0.3-0.8,0.3-1.5,0-2.1h-2.4C735.5,188.5,734.2,188.9,732.9,189.2z M729.8,206.3c0.4,0.2,0.8,0.1,1.1-0.1c0-0.3-0.1-0.6-0.2-0.7
			h-1C729.4,205.8,729.4,206.1,729.8,206.3z M730.6,199.7c0.5-0.1,0.8-0.4,1-0.9c-0.1-0.5-0.4-0.6-0.9-0.3
			C730.3,198.8,730.3,199.2,730.6,199.7z"/>
		<path class="st4" d="M769,181.7c0.6,0.6,1.2,1.3,1.7,2.1h1.4c1.4-0.8,2.9-1.5,4.4-2.1c2.3-0.3,4.8-0.5,7.5-0.3
			c1.7,0.6,3.4,1.5,4.9,2.6c0.1,0.5,0.4,0.9,0.9,1.2c0.2,1.7,0.5,3.6,0.7,5.6c-0.3,2.6-0.8,5.1-1.2,7.5c-0.2,2.9-0.4,5.9-0.5,8.9
			c0.5,0.3,1,0.5,1.7,0.3c0.7-0.7,1.5-1,2.4-1c0.3,0.2,0.8,0.5,1.2,0.7c0.1,0.9,0.5,1.7,1,2.3c-0.7,2.1-1.6,4.3-2.6,6.5
			c-1.2,0.6-2.2,1.2-3.1,1.9c-2,0.1-3.9,0.1-5.8,0c-1.7-1.3-3.3-2.7-4.7-4.2c-0.6-0.8-1-1.7-1.2-2.6c0.6-3.6,1.2-7.1,1.9-10.5
			c0.2-4,0.6-7.7,1.2-11.3c-0.1-0.5-0.3-0.8-0.7-0.9c-0.8,0-1.6,0.1-2.3,0.2c-1.5,0.8-3,1.7-4.5,2.8c-0.8,0.8-1.6,1.7-2.4,2.6
			c-1,1.7-1.9,3.6-2.6,5.4c-1,4.5-1.8,9.3-2.3,14.1c-0.9,0.5-1.6,1.1-2.1,1.9c-1.2-0.1-2.1-0.3-2.7-0.5c-0.6-0.2-1.1-0.2-1.3,0.2
			c-0.2-0.7-0.6-1.2-1.2-1.4c0-0.7-0.1-1.3-0.2-1.7c-0.9-0.2-1.7-0.5-2.3-0.7V209c1.3-5.9,2.6-11.8,4-17.6c0.6-1.5,1.2-2.9,1.9-4.2
			v-1.2c0.6-1.6,1.5-3.1,2.6-4.4C766.3,181.2,767.6,181.3,769,181.7z"/>
		<path class="st4" d="M812.3,210.9c0.8,0.7,1.5,1.7,2.1,3v2.6c-0.5,0.5-0.9,1-1.4,1.6c-0.9,0.6-1.9,1.1-2.8,1.6
			c-1-0.2-2.1-0.3-3.1-0.2c-0.2-0.7-0.6-1.2-1.2-1.6c-0.1-1.3,0.1-2.4,0.5-3.5c-0.3-0.2-0.6-0.5-0.7-0.8c-0.1-0.3-0.1-0.6,0.2-1
			c0.7-0.2,1.1-0.6,1.2-1.2c1.4-0.3,2.9-0.3,4.4,0C811.5,210.9,811.8,210.8,812.3,210.9z"/>
		<path class="st4" d="M849.5,180.7h3.7c1.3,0.7,2.6,1.6,4,2.6c0.1,0.7,0.5,1.3,1.2,1.9c0.5,2,0.9,4.1,1.4,6.3
			c0.1,3.1,0.2,6.5,0.2,10c-0.5,1.5-0.7,3.2-0.7,5.1c0.1,2.2,0.2,4.6,0.2,7.2c-0.2,0.6-0.5,1.2-0.7,1.9c-0.5,0.1-0.9,0.4-1.2,0.9
			c-0.8-0.3-1.7-0.4-2.6-0.2c-0.5-0.5-0.9-0.8-1.4-0.9c-0.3-1-0.6-2.1-0.7-3.1c-0.3,0-0.6-0.1-0.9-0.2c-0.1-0.6-0.3-1.1-0.5-1.6
			c0.2-5.8,0.6-11.6,1.2-17.3c-0.3-1.6-0.6-3.2-0.9-4.7c-0.2-0.2-0.5-0.4-0.9-0.4c-0.3-0.1-0.6,0-0.9,0.3c-1.2,1.7-2.2,3.5-3.1,5.2
			c-1.7,5.5-3.2,11.1-4.4,16.9c0,1.5-0.2,3-0.5,4.5c-0.6-0.1-0.9,0.2-1,1c-0.8-0.3-1.6-0.3-2.3,0c-0.3-0.6-0.8-1-1.4-1.2
			c0-0.7-0.2-1.3-0.5-1.7c-0.7,0-1-0.2-1-0.7c0.1-4.9,0.4-9.7,0.9-14.3c-0.3-2.1-0.7-4.1-1-6.1c-0.7,0.5-1.4,1-2.1,1.7
			c-0.9,1.2-1.8,2.4-2.6,3.8c-1.7,3.8-3,7.9-3.8,12c-0.1,1.9-0.2,3.8-0.2,5.9c-0.5,0.8-0.9,1.7-1.2,2.6c-0.8-0.2-1.5-0.5-2-0.7
			c-0.5-0.2-0.7-0.6-0.6-1c-0.5-0.6-1-0.9-1.7-1c-0.6-1-0.8-2-0.7-3c-0.3-0.2-0.6-0.3-0.7-0.3c0.3-4,0.8-7.9,1.4-11.9
			c0.6-4,1.4-7.9,2.4-11.7h0.5c-0.1-0.6-0.1-1.1,0-1.6c1.2-1.2,2.2-2.5,3.1-4c0.5,0,0.9,0,1.4,0c0.8,1.2,1.5,2.3,1.9,3.5
			c1.5-1,3-2.1,4.5-3.1c1.6-0.5,3.1-0.6,4.4-0.3c0.6,0.5,1.2,0.9,1.9,1.4c0,1.2,0.3,2.2,1,3.1c0.8-1.3,1.7-2.7,2.8-4.2
			C846.7,182.4,848.1,181.5,849.5,180.7z M822.8,194.8c0.1,0.1,0.3,0,0.5-0.3c0.2-1.4,0.3-2.6,0.2-3.5
			C822.9,192.1,822.7,193.4,822.8,194.8z"/>
		<path class="st4" d="M884.4,160.6l0.7,0.7c0.5-0.1,0.9-0.2,1.4-0.2c0.3,0.5,0.9,0.8,1.6,0.9c0.3,1.5,0.4,3.3,0.2,5.2
			c-0.3,0.6-0.6,1.2-0.7,1.9c-0.1,2.4-0.3,5-0.5,7.7c-0.2,0.2-0.4,0.5-0.5,0.7c0,0.9,0,2,0,3.1c-1.2,5.4-2.2,10.8-3,16.2
			c0.1,1.5,0,3.2-0.3,5.1c-0.3,1.9-0.8,3.8-1.4,5.9c0,0.2,0.2,0.4,0.5,0.5c2.8-2.6,5.8-4.8,9.1-6.6c0.3,0.2,0.7,0.4,1,0.5
			c-0.2,0.1-0.3,0.4-0.2,0.8c0.1,0.4,0.5,0.7,1,0.8c-0.5,1.3-0.8,2.6-1,3.8c-1.2,1-1.9,2.3-2.3,3.8c-1.3,1-2.4,2.1-3.3,3.1
			c-1.6,0.9-3.3,1.7-5.1,2.3h-1.2c-0.6,0.2-1,0.6-1.2,1.2c-0.6,0.1-1.2,0.2-1.7,0.3c-1.2-0.7-2.3-1.2-3.3-1.6
			c0.3-2.6,0.9-5.2,1.6-7.9c0.8-3.1,1.7-6.2,2.8-9.1c-0.1-0.6-0.1-1.1-0.1-1.5c0.1-0.4,0.2-0.7,0.4-0.8c0-1.2,0.1-2.3,0.3-3.4
			c0.2-1.1,0.5-2.2,1-3.2c-0.2-0.6-0.3-1.1-0.2-1.6c0.8-6.2,1.6-12.2,2.4-18.2c-0.2-2.8-0.2-4.9,0.2-6.3c0.5-1,0.7-2,0.7-3
			C883.7,161.4,884.1,160.8,884.4,160.6z"/>
	</g>
	<path class="st5" d="M126.7,25.3c4.3,11.2,5.8,23.6,3.9,36.3c-5.9,39.1-42.4,66.1-81.6,60.2c-8.8-1.3-17-4.2-24.3-8.3
		c10.1,16.9,27.5,29.4,48.5,32.6c37.4,5.6,72.2-20.1,77.9-57.4C154.8,63.7,144.8,40.1,126.7,25.3z"/>
	<g>
		<linearGradient id="SVGID_1_" gradientUnits="userSpaceOnUse" x1="108.3759" y1="114.153" x2="167.9912" y2="200.776">
			<stop  offset="0" style="stop-color:#55FF7C"/>
			<stop  offset="0.4541" style="stop-color:#2AD3FF"/>
		</linearGradient>
		<path class="st6" d="M213.5,165c-3.2-35.7-33.2-63.7-69.8-63.7c-38.7,0-70.1,31.4-70.1,70.1c0,4,0.3,7.8,1,11.6L213.5,165z"/>
		<path class="st7" d="M276.7,182.2c1.9,15.2-54.2,34.9-125.4,44s-130.5,4.2-132.4-11s54.2-34.9,125.4-44
			c53.2-6.8,96.8,0.3,117.8,7.5C269.2,181.1,276.2,178.3,276.7,182.2z"/>
		<path class="st8" d="M73.7,172.8c0,0-54.7,28.9-54.7,39c0,10.2,89.6,12.4,130.8,6s129.4-23.6,127-34.9
			c-2.5-11.3-65.1-24.2-65.1-24.2s-26.6,7.6-67,12.6C106.7,176.1,73.7,172.8,73.7,172.8z"/>
		<path class="st9" d="M212.5,156.9c-6.6,5.1-34.8,10-69.6,14.6c-35.4,4.7-61.1,2.5-69.9,1.3c-1,0.8-3.1,2-3,2.7
			c0.6,5.3,33.4,5.8,73.1,1.2s71.5-11.4,70.9-16.8C213.9,159.3,213.4,157.4,212.5,156.9z"/>
		
			<ellipse transform="matrix(0.1999 -0.9798 0.9798 0.1999 -171.0176 210.8886)" class="st10" cx="43.6" cy="210.2" rx="6" ry="8.3"/>
		
			<ellipse transform="matrix(0.9999 -1.633105e-02 1.633105e-02 0.9999 -3.4346 1.5789)" class="st10" cx="95" cy="211.1" rx="8.3" ry="5.3"/>
		
			<ellipse transform="matrix(0.9963 -8.637036e-02 8.637036e-02 0.9963 -17.4355 13.8217)" class="st10" cx="151" cy="208.4" rx="8.3" ry="5"/>
		
			<ellipse transform="matrix(0.9963 -8.637036e-02 8.637036e-02 0.9963 -16.3065 18.8518)" class="st10" cx="209.7" cy="197.9" rx="8.3" ry="5.2"/>
		
			<ellipse transform="matrix(0.9531 -0.3028 0.3028 0.9531 -43.5475 86.3492)" class="st10" cx="256.7" cy="183.6" rx="7.4" ry="4.8"/>
	</g>
</g>
</svg>
